<svg version="1" xmlns="http://www.w3.org/2000/svg" width="346.667" height="346.667" viewBox="0 0 260.000000 260.000000"><path d="M104.5 20.6c-11.2 1.8-22.8 7.8-30.4 16-6.9 7.3-9.5 13.8-9.5 23 .1 15 10.6 25.4 31.9 31.6 7.2 2.1 10 2.3 28.7 2.2h20.7l.9 3.7.9 3.6-9.9 1.6C99 108.7 76 129.5 76 158.3v5.8l-5.2 2.2c-15.9 6.5-41.3 20.4-43.3 23.7-.4.6-.3 1.6.2 2.1s5.6-1.9 12.3-5.8c11.4-6.5 33.5-17.3 35.6-17.3.6 0 1.6 2.6 2.3 5.7.7 3.2 3.2 9.8 5.6 14.8 15.4 31.7 55.2 52.4 96.5 50.2 18.6-1 33-6.4 41.4-15.8 6.7-7.5 8.9-12.8 9.4-23.6.4-8.1.2-9.7-2.1-14.6-13.7-30-72.2-43.1-130-29.1-3.7.9-7.1 1.4-7.4 1-.3-.3-.6-4.3-.6-8.8.1-10.5 2.7-17.8 8.9-24.7 7.8-8.7 21.5-15.4 36.9-18 3.9-.7 8-1.4 9.2-1.7 1.8-.3 2.7.6 5.4 5.6 7.8 14.7 25.9 24.3 42.9 22.7 10.2-.9 15-5.4 15-13.9 0-3.6-.6-4.7-4.4-8.4-6.1-5.8-20.9-10.4-33.8-10.4-5.2 0-6.2-1-7-7.5-.3-2.8-.2-2.8 8.7-5.1 30.6-7.7 52-21 56-34.6 1.3-4.5 1.4-6.5.5-9.7-3.4-12.8-23.7-14.3-47-3.5l-7.5 3.5-7-4.6c-9.6-6.3-23.5-13-32.5-15.5-7.3-2.1-24-3.4-30.5-2.4zm18.7 6.4c4.8.6 12.5 2.2 17 3.6 8.3 2.6 29.8 13 29.8 14.5 0 .4-1.7 2.1-3.9 3.8-8.3 6.6-15.7 18.6-18.6 30.3l-1.7 6.7-4.6.7c-6.3.9-26-1.1-35-3.6C91 78.8 77 69.8 73.1 61.8c-6.3-13.2 1.3-26.4 18.5-32.3 9.2-3.1 19.1-3.9 31.6-2.5zm92.1 11.7c3.9 2 6.1 7.5 5.3 13.2-1.8 13.4-14 22.1-40.9 29.1-14.9 3.9-15.7 3.9-15.7-.5 0-10.1 5.3-23.3 12.6-31.4 9.7-10.8 28.3-15.8 38.7-10.4zm-32 66.8c17.6 3.7 26.4 12.9 19.2 20-4.8 4.9-17 2-24.9-6-3.4-3.4-10.6-13.6-10.6-15 0-1 9.5-.5 16.3 1zm-26.3 54c22.7 3.5 42.4 12.3 54.8 24.5 13.1 12.9 14.8 29.8 4.2 39.4-9.1 8.2-19.9 11.2-36.8 10.3-13.2-.7-21-2.7-33.1-8.3-15.5-7.3-28.7-18-38.5-31.4-8.4-11.3-16.3-29.4-13.6-31 .7-.4 6-1.5 11.9-2.5 5.8-.9 11.3-1.8 12.1-2 4.8-.9 30.9-.3 39 1z"/></svg>