<?xml version="1.0" encoding="utf-8"?>
<!-- Generator: Adobe Illustrator 20.1.0, SVG Export Plug-In . SVG Version: 6.00 Build 0)  -->
<svg version="1.1" id="icon" xmlns="http://www.w3.org/2000/svg" xmlns:xlink="http://www.w3.org/1999/xlink" x="0px" y="0px"
	 viewBox="0 0 49 49" style="enable-background:new 0 0 49 49;" xml:space="preserve">
<style type="text/css">
	.st0{stroke:#FFFFFF;}
</style>
<path id="シェイプ_2" class="st0" d="M47.6,43.4l-9.3-9.3c7-9.3,5.1-22.5-4.2-29.5S11.5-0.6,4.5,8.7s-5.1,22.5,4.2,29.5
	c7.5,5.6,17.8,5.6,25.3,0l9.3,9.3c0.5,0.6,1.3,0.9,2.1,0.9c1.7,0,3-1.3,3-3C48.5,44.7,48.2,43.9,47.6,43.4z M6.5,21.5
	c0-8.3,6.7-15,15-15c8.3,0,15,6.7,15,15c0,8.3-6.7,15-15,15C13.2,36.5,6.5,29.8,6.5,21.5C6.5,21.5,6.5,21.5,6.5,21.5z"/>
<path id="長方形_618" d="M13.8,19.5h15c1.1,0,2,0.9,2,2l0,0c0,1.1-0.9,2-2,2h-15c-1.1,0-2-0.9-2-2l0,0
	C11.8,20.4,12.7,19.5,13.8,19.5z"/>
<path id="長方形_618-2" d="M21.3,12L21.3,12c1.1,0,2,0.9,2,2v15c0,1.1-0.9,2-2,2l0,0c-1.1,0-2-0.9-2-2V14
	C19.3,12.9,20.2,12,21.3,12z"/>
</svg>
