<svg id="グループ_1" data-name="グループ 1" xmlns="http://www.w3.org/2000/svg" width="22" height="22" viewBox="0 0 22 22">
  <metadata><?xpacket begin="﻿" id="W5M0MpCehiHzreSzNTczkc9d"?>
<x:xmpmeta xmlns:x="adobe:ns:meta/" x:xmptk="Adobe XMP Core 5.6-c140 79.160451, 2017/05/06-01:08:21        ">
   <rdf:RDF xmlns:rdf="http://www.w3.org/1999/02/22-rdf-syntax-ns#">
      <rdf:Description rdf:about=""/>
   </rdf:RDF>
</x:xmpmeta>





















<?xpacket end="w"?></metadata>
<defs>
    <style>
      .cls-1 {
        fill: #b3b3b3;
      }
    </style>
  </defs>
  <rect class="cls-1" width="2" height="6"/>
  <rect class="cls-1" y="8" width="2" height="6"/>
  <rect class="cls-1" x="4" width="2" height="6"/>
  <rect class="cls-1" x="4" y="8" width="2" height="6"/>
  <rect class="cls-1" x="8" width="2" height="6"/>
  <rect class="cls-1" x="8" y="8" width="2" height="6"/>
  <rect class="cls-1" x="12" width="2" height="6"/>
  <rect class="cls-1" x="12" y="8" width="2" height="6"/>
  <rect class="cls-1" x="16" width="2" height="6"/>
  <rect class="cls-1" x="16" y="8" width="2" height="6"/>
  <rect class="cls-1" x="20" width="2" height="6"/>
  <rect class="cls-1" x="20" y="8" width="2" height="6"/>
  <rect class="cls-1" y="16" width="2" height="6"/>
  <rect class="cls-1" x="4" y="16" width="2" height="6"/>
  <rect class="cls-1" x="8" y="16" width="2" height="6"/>
  <rect class="cls-1" x="12" y="16" width="2" height="6"/>
  <rect class="cls-1" x="16" y="16" width="2" height="6"/>
  <rect class="cls-1" x="20" y="16" width="2" height="6"/>
</svg>
