<svg xmlns="http://www.w3.org/2000/svg" width="22" height="17" viewBox="0 0 22 17">
  <metadata><?xpacket begin="﻿" id="W5M0MpCehiHzreSzNTczkc9d"?>
<x:xmpmeta xmlns:x="adobe:ns:meta/" x:xmptk="Adobe XMP Core 5.6-c140 79.160451, 2017/05/06-01:08:21        ">
   <rdf:RDF xmlns:rdf="http://www.w3.org/1999/02/22-rdf-syntax-ns#">
      <rdf:Description rdf:about=""/>
   </rdf:RDF>
</x:xmpmeta>








                                                                                                    












<?xpacket end="w"?></metadata>
<defs>
    <style>
      .cls-1 {
        fill-rule: evenodd;
      }
    </style>
  </defs>
  <path d="M382.384,5108H365.616a2.58,2.58,0,0,0-2.609,2.55v11.9a2.58,2.58,0,0,0,2.609,2.55h16.768a2.58,2.58,0,0,0,2.609-2.55v-11.9A2.58,2.58,0,0,0,382.384,5108Zm0,14.75H365.616a0.369,0.369,0,0,1-.4-0.3v-10.33l7.584,6.52a0.824,0.824,0,0,0,.557.21h1.28a0.824,0.824,0,0,0,.557-0.21l7.584-6.52v10.33A0.369,0.369,0,0,1,382.384,5122.75ZM374,5116.61l-7.376-6.36h14.752Z" transform="translate(-363 -5108)"/>
</svg>
