<svg xmlns="http://www.w3.org/2000/svg" width="23.06" height="22.03" viewBox="0 0 23.06 22.03">
<defs>
    <style>
      .cls-1 {
        fill: #fff;
        fill-rule: evenodd;
      }
    </style>
  </defs>
  <path id="シェイプ_3" data-name="シェイプ 3" class="cls-1" d="M1170.79,1816.38l-7.26-.62-2.82-6.7a0.8,0.8,0,0,0-.73-0.49,0.768,0.768,0,0,0-.73.49l-2.83,6.7-7.25.62a0.774,0.774,0,0,0-.69.54,0.822,0.822,0,0,0,.24.86l5.49,4.75-1.65,7.08a0.833,0.833,0,0,0,.31.82,0.805,0.805,0,0,0,.88.04l6.23-3.77,6.23,3.77a0.779,0.779,0,0,0,.41.12,0.8,0.8,0,0,0,.47-0.15,0.772,0.772,0,0,0,.3-0.82l-1.65-7.08,5.5-4.75a0.824,0.824,0,0,0,.24-0.85A0.767,0.767,0,0,0,1170.79,1816.38Z" transform="translate(-1148.44 -1808.56)"/>
</svg>
