<svg xmlns="http://www.w3.org/2000/svg" width="23.062" height="22" viewBox="0 0 23.062 22">
  <metadata><?xpacket begin="﻿" id="W5M0MpCehiHzreSzNTczkc9d"?>
<x:xmpmeta xmlns:x="adobe:ns:meta/" x:xmptk="Adobe XMP Core 5.6-c140 79.160451, 2017/05/06-01:08:21        ">
   <rdf:RDF xmlns:rdf="http://www.w3.org/1999/02/22-rdf-syntax-ns#">
      <rdf:Description rdf:about=""/>
   </rdf:RDF>
</x:xmpmeta>
                                                                                                    
                                                                                                    
                                                                                                    
                                                                                                    
                                                                                                    
                                                                                                    
                                                                                                    
                                                                                                    
                                                                                                    
                                                                                                    
                                                                                                    
                                                                                                    
                                                                                                    
                                                                                                    
                                                                                                    
                                                                                                    
                                                                                                    
                                                                                                    
                                                                                                    
                                                                                                    
                           
<?xpacket end="w"?></metadata>
<defs>
    <style>
      .cls-1 {
        fill: #ddd;
        fill-rule: evenodd;
      }
    </style>
  </defs>
  <path id="シェイプ_2" data-name="シェイプ 2" class="cls-1" d="M271.771,1816.96l-7.251-.61-2.82-6.71a0.8,0.8,0,0,0-.732-0.49,0.785,0.785,0,0,0-.732.49l-2.821,6.71-7.251.61a0.782,0.782,0,0,0-.692.54,0.813,0.813,0,0,0,.24.85l5.5,4.75-1.65,7.08a0.8,0.8,0,0,0,1.184.86l6.227-3.76,6.227,3.76a0.778,0.778,0,0,0,.412.12,0.791,0.791,0,0,0,.466-0.15,0.76,0.76,0,0,0,.306-0.82l-1.65-7.08,5.5-4.74a0.825,0.825,0,0,0,.239-0.85A0.773,0.773,0,0,0,271.771,1816.96Zm-6.452,5.26a0.8,0.8,0,0,0-.253.79l1.33,5.7-5.016-3.03a0.778,0.778,0,0,0-.412-0.12,0.743,0.743,0,0,0-.412.12l-5.016,3.03,1.33-5.7a0.806,0.806,0,0,0-.253-0.79l-4.43-3.83,5.84-.49a0.8,0.8,0,0,0,.666-0.48l2.275-5.41,2.275,5.4a0.778,0.778,0,0,0,.665.48l5.841,0.49Z" transform="translate(-249.438 -1809.16)"/>
</svg>
