<?xml version="1.0" encoding="utf-8"?>
<!-- Generator: Adobe Illustrator 20.1.0, SVG Export Plug-In . SVG Version: 6.00 Build 0)  -->
<svg version="1.1" id="レイヤー_1" xmlns="http://www.w3.org/2000/svg" xmlns:xlink="http://www.w3.org/1999/xlink" x="0px"
	 y="0px" viewBox="0 0 105 21.2" style="enable-background:new 0 0 105 21.2;" xml:space="preserve">
<style type="text/css">
	.st0{fill:#231815;}
</style>
<g>
	<path class="st0" d="M5,11.6h6.6c1.9,0,3.7,0.7,3.7,2.5c0,2.1-1.4,3-4,3H5V11.6z M0,20.6h10.5c5.1,0,6.4-0.7,7.8-1.8
		c1.3-1.1,2.1-2.6,2.1-4.2c0-2-0.8-4-3.8-4.9c1-0.4,3-1.3,3-4.2c0-2.1-1.5-5.2-7.6-5.2H0V20.6z M5,3.7h5.9c2.3,0,3.8,0.5,3.8,2.2
		c0,1.6-1.6,2.3-3.6,2.3H5V3.7z"/>
	<path class="st0" d="M31.4,4.9L31.4,4.9l2.7,8.1h-5.5L31.4,4.9z M27.4,16.5h7.9l1.4,4.2h4.9L34,0.3h-5.2l-7.7,20.4h4.7L27.4,16.5z"
		/>
	<path class="st0" d="M57.1,7.2C56.7,6,56,3.7,52,3.7c-2.3,0-5.7,1.3-5.7,7c0,3.6,1.6,6.8,5.7,6.8c2.6,0,4.5-1.3,5.1-3.8h4.8
		c-1,4.4-4.2,7.4-10,7.4c-6.1,0-10.5-3.6-10.5-10.5c0-7,4.6-10.6,10.5-10.6c6.9,0,9.6,4.1,9.9,7.1H57.1z"/>
	<path class="st0" d="M79.6,7.1c-0.4-1.2-1.1-3.5-5.1-3.5c-2.3,0-5.7,1.3-5.7,7c0,3.6,1.6,6.8,5.7,6.8c2.6,0,4.5-1.3,5.1-3.8h4.8
		c-1,4.4-4.2,7.4-10,7.4c-6.1,0-10.5-3.6-10.5-10.5C64,3.6,68.6,0,74.5,0c6.9,0,9.6,4.1,9.9,7.1H79.6z"/>
	<path class="st0" d="M94.7,4.9L94.7,4.9l2.7,8.1H92L94.7,4.9z M90.8,16.5h7.9l1.4,4.2h4.9L97.4,0.3h-5.2l-7.7,20.4h4.7L90.8,16.5z"
		/>
</g>
</svg>
