<?xml version="1.0" encoding="utf-8"?>
<!-- Generator: Adobe Illustrator 20.1.0, SVG Export Plug-In . SVG Version: 6.00 Build 0)  -->
<svg version="1.1" id="レイヤー_1" xmlns="http://www.w3.org/2000/svg" xmlns:xlink="http://www.w3.org/1999/xlink" x="0px"
	 y="0px" viewBox="0 0 169.4 18.5" style="enable-background:new 0 0 169.4 18.5;" xml:space="preserve">
<style type="text/css">
	.st0{fill:#231815;}
</style>
<g>
	<path class="st0" d="M16.6,16.8c-2.1,1.1-4.6,1.7-7.3,1.7C3.9,18.5,0,14.9,0,9.4C0,3.7,3.9,0,9.3,0c2.7,0,5.1,0.6,7,2.2L14,4.6
		c-1.1-1.1-2.8-1.7-4.6-1.7c-3.6,0-6.1,2.8-6.1,6.3c0,3.8,2.4,6.6,6.1,6.6c1.6,0,3-0.3,4.1-0.9v-4.2H9.9V7.8h6.8V16.8z"/>
	<path class="st0" d="M26.2,11.4L29,4.2l2.7,7.2H26.2z M20,18.1h3.5l1.6-4h7.7l1.6,4H38L30.4,0.4h-2.7L20,18.1z"/>
	<path class="st0" d="M42.3,0.4h3.1v14.8h7.5v2.8H42.3V0.4z"/>
	<path class="st0" d="M57.4,0.4h11.7v2.8h-8.6v4.3h8.1v2.8h-8.1v4.8h9v2.8H57.4V0.4z"/>
	<path class="st0" d="M78.1,7.9V3.1h2.7c1.6,0,3.6,0.2,3.6,2.3c0,2.3-2.1,2.4-3.8,2.4H78.1z M74.9,18.1h3.2v-7.5h2.3l4.1,7.5h3.8
		l-4.7-7.8c2.6-0.4,4.1-2.2,4.1-4.8c0-4-3.2-5.1-6.6-5.1h-6.1V18.1z"/>
	<path class="st0" d="M92.8,0.4H96v17.7h-3.1V0.4z"/>
	<path class="st0" d="M102.1,0.4h11.7v2.8h-8.6v4.3h8.1v2.8h-8.1v4.8h9v2.8h-12.2V0.4z"/>
	<path class="st0" d="M127.1,0.4h3.6l4.8,13.3l5-13.3h3.4l-7.1,17.7h-2.7L127.1,0.4z"/>
	<path class="st0" d="M148,0.4h3.2v17.7H148V0.4z"/>
	<path class="st0" d="M157.2,0.4h11.7v2.8h-8.6v4.3h8.1v2.8h-8.1v4.8h9v2.8h-12.1V0.4z"/>
</g>
</svg>
