<?xml version="1.0" encoding="utf-8"?>
<!-- Generator: Adobe Illustrator 20.1.0, SVG Export Plug-In . SVG Version: 6.00 Build 0)  -->
<svg version="1.1" id="レイヤー_1" xmlns="http://www.w3.org/2000/svg" xmlns:xlink="http://www.w3.org/1999/xlink" x="0px"
	 y="0px" viewBox="0 0 101.8 21.3" style="enable-background:new 0 0 101.8 21.3;" xml:space="preserve">
<style type="text/css">
	.st0{fill:#231815;}
</style>
<g>
	<path class="st0" d="M21.5,0.5h4.8l9.8,15.1l0.1,0.1h-0.1l0.1-0.1V0.5h3.6v20.3h-4.6l-10-15.6h0v15.6h-3.6V0.5z"/>
	<path class="st0" d="M47.4,10.5c0-4,2.8-7.2,7-7.2c4.2,0,7,3.2,7,7.2c0,4.3-2.8,7.5-7,7.5C50.2,18,47.4,14.8,47.4,10.5z M43.6,10.7
		c0,6.3,4.5,10.6,10.7,10.6c6.3-0.1,10.8-4.3,10.8-10.7c0-6.5-4.5-10.7-10.8-10.6C48.1,0,43.6,4.2,43.6,10.7z"/>
	<path class="st0" d="M73.2,3.8H67V0.5H83v3.3h-6.2v17h-3.6V3.8z"/>
	<g>
		<path class="st0" d="M0,0.5h3.6v8.6h0.2l8.4-8.6H17L7.6,9.9l10.1,10.9h-5.1l-8.8-10H3.6v10H0V0.5z"/>
		<path class="st0" d="M91.9,3.8h-6.2V0.5h16v3.3h-6.2v17h-3.6V3.8z"/>
	</g>
</g>
</svg>
