<?xml version="1.0" encoding="utf-8"?>
<!-- Generator: Adobe Illustrator 20.1.0, SVG Export Plug-In . SVG Version: 6.00 Build 0)  -->
<svg version="1.1" id="レイヤー_1" xmlns="http://www.w3.org/2000/svg" xmlns:xlink="http://www.w3.org/1999/xlink" x="0px"
	 y="0px" viewBox="0 0 120.5 24.3" style="enable-background:new 0 0 120.5 24.3;" xml:space="preserve">
<style type="text/css">
	.st0{fill:#231815;}
</style>
<g>
	<path class="st0" d="M20.6,5c0-0.1,0.1-0.2,0.2-0.2h8.5c0.2,0,0.3,0,0.3,0.2v1.1c0,0.2-0.1,0.2-0.2,0.2h-7c-0.1,0-0.2,0.1-0.2,0.2
		v5.7c0,0.1,0.1,0.2,0.3,0.2c0.1,0,6.8,0,6.9,0c0.1,0,0.3,0.1,0.3,0.2v1.1c0,0.1-0.1,0.2-0.2,0.2h-6.9c-0.1,0-0.3,0.1-0.2,0.3
		c0,0.1,0,7.7,0,7.7c0,0.2,0.1,0.3,0.3,0.3h7.1c0.2,0,0.3,0.2,0.3,0.3v0.9c0,0.1-0.2,0.3-0.3,0.3h-8.8c-0.1,0-0.2-0.1-0.2-0.2
		C20.6,23.4,20.6,5,20.6,5"/>
	<path class="st0" d="M96.2,2.4c0,0-0.1-0.1,0.1-0.2c0.2-0.1,4.9-2.2,4.9-2.2s0.2-0.1,0.3,0.1c0.2,0.3,0.7,1,0.7,1s0.1,0.1,0,0.2
		c-0.1,0.1-5.3,1.6-5.3,1.6s-0.1,0.1-0.3,0C96.6,2.8,96.2,2.4,96.2,2.4"/>
	<path class="st0" d="M0,4.6c0-0.1,0.1-0.1,0.1-0.1h5.7c3.5,0,8.6,3.1,8.6,9.4c0,5.4-3.7,9.6-9,9.6c-4.8,0-5.3,0-5.3,0
		c-0.1,0-0.2,0-0.2-0.2V4.6 M5.1,22c2.2,0,7.7-1.3,7.7-8.3c0-5.9-5.2-7.8-7.6-7.8c-0.9,0-3.2,0-3.4,0c0,0-0.1,0-0.1,0.2v15.5
		c0,0.3,0.1,0.4,0.3,0.4C1.9,22,2.6,22,5.1,22"/>
	<path class="st0" d="M40.3,4c-2.2,0-4.8,1.6-4.8,4.7c0,3.6,3.5,4.6,6.2,6c2.3,1.1,3.3,2.3,3.3,3.9c0,2.6-2.2,4-4.2,4
		c-2.7,0-4.1-2-4.7-2.9c-0.1-0.2-0.3-0.2-0.4-0.2c-0.2,0.1-0.8,0.4-1,0.5c-0.1,0.1-0.2,0.2-0.1,0.4c0.1,0.1,0.5,1,1.5,1.9
		c1.1,1,2.6,1.8,4.6,1.8c3.6,0,5.9-2.2,5.9-5.6c0-1.1-0.6-2.8-2-3.8c-2.8-2-7.4-2.8-7.4-6.1c0-0.8,0.7-2.9,3.1-2.9
		c2.2,0,3.2,1.6,3.5,1.9c0.1,0.2,0.2,0.2,0.4,0.1c0.2-0.1,0.8-0.6,0.9-0.7c0.1-0.1,0.1-0.1,0-0.2C45,6.5,43.6,4,40.3,4"/>
	<path class="st0" d="M62.7,4.7c0,0,0-0.2,0.2-0.2h4.8c0.5,0,5.4,0.3,5.1,5.3c-0.2,2.5-1.6,4.8-6.3,4.8h-1.9c-0.1,0-0.2,0.1-0.2,0.3
		v8.5c0,0.3-0.2,0.4-0.4,0.4h-0.9c-0.1,0-0.4-0.2-0.4-0.4L62.7,4.7 M71.2,9.5C71.2,6.9,69,6,67.8,6h-3.3c-0.1,0-0.1,0.1-0.1,0.1v6.8
		c0,0.1,0.1,0.2,0.2,0.2h2C69.3,13.1,71.2,11.9,71.2,9.5"/>
	<path class="st0" d="M94.3,5c0-0.1,0.1-0.2,0.2-0.2h8.6c0.2,0,0.3,0,0.3,0.2v1.1c0,0.2-0.1,0.2-0.2,0.2h-7.1
		c-0.1,0-0.2,0.1-0.2,0.2v5.7c0,0.1,0.1,0.2,0.3,0.2c0.1,0,6.8,0,6.9,0c0.1,0,0.3,0.1,0.3,0.2v1.1c0,0.1-0.1,0.2-0.2,0.2h-6.9
		c-0.1,0-0.3,0.1-0.3,0.3c0,0.1,0,7.7,0,7.7c0,0.2,0.1,0.3,0.3,0.3h7.1c0.2,0,0.3,0.2,0.3,0.3v0.9c0,0.1-0.2,0.3-0.3,0.3h-8.8
		c-0.1,0-0.2-0.1-0.2-0.2C94.3,23.4,94.3,5,94.3,5"/>
	<path class="st0" d="M78.6,4.9c0,0,0-0.2,0.2-0.2h4.7c1.8,0,4.8,0.9,4.8,5c0,1.8-0.9,5-5.5,5c0,0-0.3,0-0.2,0.2
		c0.1,0.2,6.1,8.3,6.2,8.4c0.1,0.1,0.1,0.3-0.1,0.3h-1.7c-0.1,0-0.2-0.1-0.4-0.3c-0.2-0.2-3.3-4.8-3.3-4.8S80.9,15,80.8,15
		c0-0.1-0.4-0.3-0.6,0v8.3c0,0.2-0.1,0.4-0.3,0.4h-1.1c-0.1,0-0.3-0.2-0.3-0.4C78.6,23.1,78.6,4.9,78.6,4.9 M86.6,9.6
		c0-2.1-1.6-3.4-3.1-3.4h-3.1c-0.1,0-0.1,0.1-0.1,0.1v6.8c0,0.3,0.3,0.3,0.3,0.3h1.8C85.8,13.4,86.6,11.5,86.6,9.6"/>
	<path class="st0" d="M114.1,4.3c-2.2,0-4.8,1.6-4.8,4.7c0,3.6,3.5,4.6,6.2,6c2.3,1.1,3.3,2.3,3.3,3.9c0,2.6-2.2,4-4.2,4
		c-2.7,0-4.1-2-4.7-2.9c-0.1-0.2-0.3-0.2-0.4-0.2c-0.2,0.1-0.8,0.4-1,0.4c-0.1,0.1-0.2,0.2-0.1,0.4c0.1,0.1,0.6,1,1.5,1.9
		c1.1,1,2.6,1.8,4.6,1.8c3.6,0,5.9-2.2,5.9-5.6c0-1.1-0.6-2.8-2-3.8c-2.8-2-7.4-2.8-7.4-6.1c0-0.8,0.7-2.9,3.1-2.9
		c2.2,0,3.2,1.6,3.5,1.9c0.1,0.2,0.2,0.2,0.4,0.1c0.2-0.1,0.8-0.6,0.9-0.7c0.1-0.1,0.1-0.1,0-0.2C118.9,6.8,117.4,4.3,114.1,4.3"/>
</g>
</svg>
