<?xml version="1.0" encoding="utf-8"?>
<!-- Generator: Adobe Illustrator 20.1.0, SVG Export Plug-In . SVG Version: 6.00 Build 0)  -->
<svg version="1.1" id="レイヤー_1" xmlns="http://www.w3.org/2000/svg" xmlns:xlink="http://www.w3.org/1999/xlink" x="0px"
	 y="0px" viewBox="0 0 180.8 15.5" style="enable-background:new 0 0 180.8 15.5;" xml:space="preserve">
<style type="text/css">
	.st0{fill:#231815;}
</style>
<g>
	<polygon class="st0" points="7.7,8.8 2.1,0.3 0,0.3 0,15.2 2.4,15.2 2.4,4.8 7.7,12.7 13,4.8 13,15.2 15.4,15.2 15.4,0.3 13.3,0.3 
			"/>
	<path class="st0" d="M36.5,0.3l-7.3,14.9h2.6l1.9-3.8h7.5l1.9,3.8h2.6L38.4,0.3H36.5z M40.1,9.1h-5.3l2.6-5.3L40.1,9.1z"/>
	<path class="st0" d="M70.2,10.2c-1.1,2-2.7,3.1-4.8,3.1c-3,0-5.2-2.3-5.2-5.5c0-3.2,2.2-5.5,5.2-5.5c2,0,3.6,1,4.5,2.6L70,5.2
		l2-1.4l-0.2-0.3C70.5,1.3,68.1,0,65.4,0c-4.4,0-7.7,3.3-7.7,7.8c0,4.5,3.2,7.8,7.7,7.8c3,0,5.4-1.4,6.8-4l0.1-0.2l-1.9-1.4
		L70.2,10.2z"/>
	<path class="st0" d="M96.2,0.3h-8.5v14.9h2.4V8.9h6.3c2.7,0,4.5-1.8,4.5-4.5C101,1.9,99.1,0.3,96.2,0.3z M90.1,2.6h6
		c1.5,0,2.3,0.7,2.3,2.1c0,1.3-0.8,2-2.4,2h-6V2.6z"/>
	<polygon class="st0" points="124.8,5.9 117.1,5.9 117.1,0.3 114.6,0.3 114.6,15.2 117.1,15.2 117.1,8.2 124.8,8.2 124.8,15.2 
		127.2,15.2 127.2,0.3 124.8,0.3 	"/>
	<polygon class="st0" points="144.8,8.4 150.5,8.4 150.5,6.1 144.8,6.1 144.8,2.6 154.2,2.6 154.2,0.3 142.4,0.3 142.4,15.2 
		154.8,15.2 154.8,12.9 144.8,12.9 	"/>
	<polygon class="st0" points="170.8,12.9 170.8,8.4 176.5,8.4 176.5,6.1 170.8,6.1 170.8,2.6 180.2,2.6 180.2,0.3 168.4,0.3 
		168.4,15.2 180.8,15.2 180.8,12.9 	"/>
</g>
</svg>
