<?xml version="1.0" encoding="utf-8"?>
<!-- Generator: Adobe Illustrator 20.1.0, SVG Export Plug-In . SVG Version: 6.00 Build 0)  -->
<svg version="1.1" xmlns="http://www.w3.org/2000/svg" xmlns:xlink="http://www.w3.org/1999/xlink" x="0px" y="0px"
	 viewBox="0 0 340.1 103.5" style="enable-background:new 0 0 340.1 103.5;" xml:space="preserve">
<style type="text/css">
	.st0{fill:#001F5B;}
	.st1{fill:#CF0A2C;}
</style>
<g id="レイヤー_1">
	<g>
		<path class="st0" d="M167.2,42.9V28.5h2c7.6,0,11.7,3.5,11.7,10.6c0,7.5-4.4,10.5-8.6,10.5c-0.1,0-0.2,0-0.2,0
			C168.4,49.7,167.2,48.1,167.2,42.9 M167.2,11.6c0-1.9,0.2-2.9,0.7-3.3c0.4-0.4,1.7-0.9,3.2-0.9c4.7,0,7.7,3.3,7.7,9.3
			c0,6.1-2.8,9.2-9.5,9.2h-2.1V11.6z M154.7,4.5V7c4.9,0.4,5.3,0.9,5.3,7.1V43c0,6.3-0.5,6.7-5.7,7.3v2.3h15.6
			c5.2,0,10-0.9,13.2-3.1c3.7-2.3,6.1-6.1,6.1-11.1c0-7.2-5-10.5-12-11.6v-0.2c4.2-1.2,9.5-4,9.5-11c0-3.5-1.4-6.7-3.7-8.4
			c-2.3-1.8-5.4-2.6-10.3-2.6H154.7z"/>
		<path class="st0" d="M293.9,5.8c2.9,0.4,4.3,1,5.6,2.8c1.2,1.8,1.3,2.7,1.2,7.7l-0.3,15.6c-0.1,6.6-0.5,9.9-0.8,12.4
			c-0.4,3.3-2,4.4-5.7,4.6l0,2.3l15.7,0.4l0-2.3c-4.6-0.5-5.9-1.7-6.1-5.1c-0.2-2.2-0.3-5.6-0.2-12.2l0.3-17.4h0.1l27,38.2l2.7,0.1
			l0.5-29.3c0.1-6.7,0.4-10,0.7-12.3c0.4-3.4,1.8-4.3,5.3-4.4l0-2.4l-15.7-0.4l0,2.4c4.7,0.4,6.1,1.6,6.4,4.9
			c0.2,2.1,0.3,5.5,0.2,12.2l-0.3,15l-0.2,0L305,3.7l-11-0.3L293.9,5.8z"/>
		<path class="st0" d="M0,28.7C0,41.8,8.4,56,28,56c5.3,0,12.1-1.6,14.1-2.2c1.3-2.8,3.3-9.1,4.3-13.1L44,39.6
			c-3.9,8.4-8.3,12.9-15.3,12.9c-10.9,0-18.8-10.2-18.8-25.5C9.9,14.8,16.2,3.4,28,3.4c7,0,12.3,3.2,14.5,12.6l2.6-0.6
			c-0.4-4.9-1-8.6-1.7-13.2C41.4,1.8,35.9,0,29.8,0C12.1,0,0,11.6,0,28.7"/>
		<g>
			<path class="st0" d="M264.9,34.7c0-1,0-2,0-3c-7.6,0.3-15.2,0.7-22.8,1.3c-4.7,0.4-9.4,0.9-14.2,1.3c-1.5,1.4-2.4,3.1-2.8,4.8
				c7.5-2,15.7-2.4,23-3.1C253.7,35.6,259.3,35.2,264.9,34.7z"/>
			<path class="st0" d="M226.9,17.9v9.4c6.9,0.5,15-2.1,15-8.2c0-0.5-0.1-1-0.1-1.4C236.7,17.7,231.8,17.7,226.9,17.9z"/>
			<path class="st0" d="M251.7,25.8c-3.4,0.7-6.8,1.3-10.2,1.8c-3,1.3-6.6,2.7-10.6,4.8c0.5,0,1-0.1,1.5-0.1
				c7.8-0.7,15.6-1.4,23.4-1.8c3-0.1,6-0.3,9.1-0.4c0-2.4-0.1-4.8-0.2-7C260.4,24.1,256.1,24.9,251.7,25.8z"/>
			<path class="st0" d="M227.3,40.5c-0.4,0.1-1.2,0.2-2.2,0.4c0,0.3,0,0.6,0.1,0.9c2.8-0.1,5.5-0.2,8.3-0.5c4.4-0.3,8.7-0.7,13-0.9
				l0-2.8c0,0,0,0,0,0C240,38.2,233.6,39,227.3,40.5z"/>
			<path class="st0" d="M263.7,17.9c-2.4,0-4.9,0-7.3,0c-2.6,0-5.1,0-7.7,0c0.2,0.5,0.2,1,0.2,1.6c0,2.7-1.2,4.5-3.2,6
				c6.3-1.1,12.6-2.2,18.9-3.7C264.4,20.2,264.1,18.9,263.7,17.9z"/>
			<path class="st0" d="M247.3,37.9c0.2,0.9,0.3,1.7,0.5,2.5c0.4,0,0.8,0,1.3-0.1c5.2-0.2,10.5-0.2,15.7-0.2c0-1.3,0.1-2.6,0.1-3.9
				c-5.9,0.6-11.8,0.9-17.7,1.4C247.2,37.7,247.3,37.8,247.3,37.9z"/>
			<path class="st0" d="M246.5,45.9l0-3.8c-7,0.3-14.1,1-21.1,1.3c0.6,2.4,1.9,4.1,3.6,5.2c5.7-0.9,11.4-1.9,17.2-2.6
				C246.3,46,246.4,46,246.5,45.9z"/>
			<path class="st0" d="M232.3,50.2c2.6,0.8,4.9,0.8,4.9,0.8l9.2-0.1l0-3.2C241.7,48.3,237,49.4,232.3,50.2z"/>
			<path class="st0" d="M251.9,47c-0.5,0-0.9,0.1-1.4,0.1c0.8,1.1,1.7,2,2.9,2.5c3.6,1.7,10.9,1.5,10.9,1.5s0.1-1.5,0.2-3.9
				C259.8,47.3,255.2,46.9,251.9,47z"/>
			<path class="st0" d="M241.1,16c-1.5-2.9-4.7-4.1-4.7-4.1c5.3,0,9.4,1.6,11.3,4.1c1.6,0,3.3,0,4.9,0c3.3,0,6.6-0.1,10-0.2
				c-3.7-5.5-10.9-5.2-10.9-5.2l-24.8-0.2v5.7C231.6,16.1,236.4,16,241.1,16z"/>
			<path class="st0" d="M264.6,45.3c0.1-1,0.1-2.2,0.1-3.4c-5.5,0-11,0-16.5,0.2c0.4,1.3,0.8,2.5,1.3,3.5c2.8-0.2,5.5-0.3,8.4-0.3
				C260.2,45.3,262.4,45.4,264.6,45.3z"/>
		</g>
		<g>
			<path class="st0" d="M120.1,32.8c-13.6,0.1-27.3,0.6-40.9,0.5l-1.4,4.1c8.7-0.2,17.4-0.8,25.9-0.7c5.5,0.1,11,0.2,16.5,0.4
				C120.1,35.5,120.1,34.1,120.1,32.8z"/>
			<path class="st0" d="M107.5,25.2l1.2,5.7c3.8,0,7.5,0,11.3,0.1c-0.1-1.9-0.1-3.7-0.2-5.3c-3.4-0.2-6.9-0.4-10.3-0.6
				C108.9,25.2,108.2,25.2,107.5,25.2z"/>
			<path class="st0" d="M98.7,22.6l0.2-2.3l7.8,0.6l0.5,2.3c1.1,0.1,2.3,0.1,3.4,0.2c0.3,0,0.7,0,1,0c2.7-0.1,5.4-0.2,8.1-0.3
				c-0.2-2.6-0.4-4.9-0.7-6.9c-6-0.2-12-0.3-17.9,0.1c-5.5,0.4-11,0.9-16.5,1.4l-1.4,3.9c2.5,0.1,5,0.2,7.4,0.4
				C93.3,22.2,96,22.4,98.7,22.6z"/>
			<path class="st0" d="M85,31.4c4.4-0.2,8.7-0.4,13.1-0.4l0.4-5.4c-5.7,0.2-11.3,0.4-16.9,0.9l-1.8,5.1c0.4,0,0.9,0,1.3,0
				C82.4,31.6,83.7,31.5,85,31.4z"/>
			<path class="st0" d="M120.1,38.7c-6.8-0.2-13.5-0.4-20.3-0.4c-7.4-0.1-15,0.5-22.6,0.7l-1.8,5.2c5.3-1.4,10.6-2.5,16-3.2l0-0.1
				l0.8,0c9.2-1.3,18.5-1.7,27.9-1.9C120.1,38.8,120.1,38.7,120.1,38.7z"/>
			<path class="st0" d="M120.1,40.5c-5.6,0.1-11.1,0.3-16.6,0.7l0.7,4.3c5.3-0.5,10.5-1,15.8-1.4C120,42.7,120.1,41.6,120.1,40.5z"
				/>
			<path class="st0" d="M104.5,46.9l0.8,4.3l14.5-0.2c0.1-2,0.2-3.8,0.2-5.5C114.8,46,109.6,46.4,104.5,46.9z"/>
			<path class="st0" d="M82.7,23.2l-0.6,1.6c5-0.3,10-0.3,14.9-0.5C92.2,23.9,87.4,23.5,82.7,23.2z"/>
			<path class="st0" d="M73.6,49.3L72,53.8l19.2-1.1l0.1-4.5C85.4,48.6,79.5,49,73.6,49.3z"/>
			<path class="st0" d="M91.3,42.4c-5.6,0.8-11.1,1.9-16.6,3.4l-0.6,1.9c5.7-0.3,11.4-0.7,17.1-1.2L91.3,42.4z"/>
			<path class="st0" d="M118.7,14c-0.1-0.6-0.1-1.1-0.2-1.7l-30-6L85.9,14C96.8,14.3,107.8,13.9,118.7,14z"/>
		</g>
	</g>
	<rect x="43.7" y="72.8" class="st1" width="252.8" height="1.2"/>
	<g>
		<polygon class="st0" points="68.6,93.1 65.3,93.1 65.3,103.3 64,103.3 64,93.1 60.7,93.1 60.7,91.5 68.6,91.5 		"/>
		<polygon class="st0" points="68.6,93.1 65.3,93.1 65.3,103.3 64,103.3 64,93.1 60.7,93.1 60.7,91.5 68.6,91.5 		"/>
		<path class="st0" d="M83.8,91.4c3.1,0,5.1,2.8,5.1,6.1c0,3.2-1.9,6.1-5.1,6.1c-3.1,0-5-2.8-5-6.1C78.7,94.2,80.7,91.4,83.8,91.4
			 M83.8,101.9c2.1,0,3.7-1.9,3.7-4.5c0-2.6-1.6-4.5-3.7-4.5c-2.1,0-3.7,1.9-3.7,4.5C80.1,100,81.7,101.9,83.8,101.9"/>
		<path class="st0" d="M83.8,91.4c3.1,0,5.1,2.8,5.1,6.1c0,3.2-1.9,6.1-5.1,6.1c-3.1,0-5-2.8-5-6.1C78.7,94.2,80.7,91.4,83.8,91.4z
			 M83.8,101.9c2.1,0,3.7-1.9,3.7-4.5c0-2.6-1.6-4.5-3.7-4.5c-2.1,0-3.7,1.9-3.7,4.5C80.1,100,81.7,101.9,83.8,101.9z"/>
		<polygon class="st0" points="107.8,103.3 106.4,103.3 106.4,94.1 106.4,94.1 103.5,98.7 103.3,98.7 100.3,94.1 100.3,94.1 
			100.3,103.3 99,103.3 99,91.5 100.2,91.5 103.3,96.4 106.5,91.5 107.8,91.5 		"/>
		<polygon class="st0" points="107.8,103.3 106.4,103.3 106.4,94.1 106.4,94.1 103.5,98.7 103.3,98.7 100.3,94.1 100.3,94.1 
			100.3,103.3 99,103.3 99,91.5 100.2,91.5 103.3,96.4 106.5,91.5 107.8,91.5 		"/>
		<path class="st0" d="M122.9,91.4c3.1,0,5.1,2.8,5.1,6.1c0,3.2-1.9,6.1-5.1,6.1c-3.1,0-5-2.8-5-6.1
			C117.8,94.2,119.9,91.4,122.9,91.4 M122.9,101.9c2.1,0,3.7-1.9,3.7-4.5c0-2.6-1.6-4.5-3.7-4.5c-2.1,0-3.7,1.9-3.7,4.5
			C119.2,100,120.8,101.9,122.9,101.9"/>
		<path class="st0" d="M122.9,91.4c3.1,0,5.1,2.8,5.1,6.1c0,3.2-1.9,6.1-5.1,6.1c-3.1,0-5-2.8-5-6.1
			C117.8,94.2,119.9,91.4,122.9,91.4z M122.9,101.9c2.1,0,3.7-1.9,3.7-4.5c0-2.6-1.6-4.5-3.7-4.5c-2.1,0-3.7,1.9-3.7,4.5
			C119.2,100,120.8,101.9,122.9,101.9z"/>
		<path class="st0" d="M140.5,91.5c1.9,0,3.1,1.3,3.1,3.3c0,1.4-0.6,2.4-1.6,2.9c0.9,0.7,1.4,1.8,2.1,3.3c0.4,0.8,0.6,1.2,1.3,2.3
			h-1.6l-1.2-2.4c-1.2-2.4-1.8-2.7-2.5-2.7h-0.6v5.1h-1.4V91.5H140.5z M139.4,96.7h0.9c1.5,0,1.9-0.9,1.8-1.9c0-1.1-0.5-1.8-1.8-1.8
			h-0.9V96.7z"/>
		<path class="st0" d="M140.5,91.5c1.9,0,3.1,1.3,3.1,3.3c0,1.4-0.6,2.4-1.6,2.9c0.9,0.7,1.4,1.8,2.1,3.3c0.4,0.8,0.6,1.2,1.3,2.3
			h-1.6l-1.2-2.4c-1.2-2.4-1.8-2.7-2.5-2.7h-0.6v5.1h-1.4V91.5H140.5z M139.4,96.7h0.9c1.5,0,1.9-0.9,1.8-1.9c0-1.1-0.5-1.8-1.8-1.8
			h-0.9V96.7z"/>
		<path class="st0" d="M157.9,91.5c1.9,0,3.1,1.3,3.1,3.3c0,1.4-0.6,2.4-1.6,2.9c0.9,0.7,1.4,1.8,2.1,3.3c0.4,0.8,0.6,1.2,1.3,2.3
			h-1.6l-1.2-2.4c-1.2-2.4-1.8-2.7-2.5-2.7h-0.6v5.1h-1.4V91.5H157.9z M156.8,96.7h0.9c1.5,0,1.9-0.9,1.8-1.9c0-1.1-0.5-1.8-1.8-1.8
			h-0.9V96.7z"/>
		<path class="st0" d="M157.9,91.5c1.9,0,3.1,1.3,3.1,3.3c0,1.4-0.6,2.4-1.6,2.9c0.9,0.7,1.4,1.8,2.1,3.3c0.4,0.8,0.6,1.2,1.3,2.3
			h-1.6l-1.2-2.4c-1.2-2.4-1.8-2.7-2.5-2.7h-0.6v5.1h-1.4V91.5H157.9z M156.8,96.7h0.9c1.5,0,1.9-0.9,1.8-1.9c0-1.1-0.5-1.8-1.8-1.8
			h-0.9V96.7z"/>
		<path class="st0" d="M177.9,91.4c3.1,0,5.1,2.8,5.1,6.1c0,3.2-1.9,6.1-5.1,6.1c-3.1,0-5-2.8-5-6.1
			C172.9,94.2,174.9,91.4,177.9,91.4 M177.9,101.9c2.1,0,3.7-1.9,3.7-4.5c0-2.6-1.6-4.5-3.7-4.5c-2.1,0-3.7,1.9-3.7,4.5
			C174.3,100,175.8,101.9,177.9,101.9"/>
		<path class="st0" d="M177.9,91.4c3.1,0,5.1,2.8,5.1,6.1c0,3.2-1.9,6.1-5.1,6.1c-3.1,0-5-2.8-5-6.1
			C172.9,94.2,174.9,91.4,177.9,91.4z M177.9,101.9c2.1,0,3.7-1.9,3.7-4.5c0-2.6-1.6-4.5-3.7-4.5c-2.1,0-3.7,1.9-3.7,4.5
			C174.3,100,175.8,101.9,177.9,101.9z"/>
		<polygon class="st0" points="202.9,103.4 202.6,103.4 199.5,93.8 196.4,103.4 196.1,103.4 192.3,91.5 193.7,91.5 196.3,99.7 
			198.9,91.5 200.2,91.5 202.8,99.7 205.4,91.5 206.7,91.5 		"/>
		<polygon class="st0" points="202.9,103.4 202.6,103.4 199.5,93.8 196.4,103.4 196.1,103.4 192.3,91.5 193.7,91.5 196.3,99.7 
			198.9,91.5 200.2,91.5 202.8,99.7 205.4,91.5 206.7,91.5 		"/>
		<polygon class="st0" points="218.2,101.8 222.4,101.8 222.4,103.3 216.8,103.3 216.8,91.5 218.2,91.5 		"/>
		<polygon class="st0" points="218.2,101.8 222.4,101.8 222.4,103.3 216.8,103.3 216.8,91.5 218.2,91.5 		"/>
		<path class="st0" d="M241.8,103.3h-1.4l-1.3-3.5h-4l-1.2,3.5h-1.4l4.1-11.9h1L241.8,103.3z M235.6,98.3h2.9l-1.5-4.3L235.6,98.3z"
			/>
		<path class="st0" d="M241.8,103.3h-1.4l-1.3-3.5h-4l-1.2,3.5h-1.4l4.1-11.9h1L241.8,103.3z M235.6,98.3h2.9l-1.5-4.3L235.6,98.3z"
			/>
		<polygon class="st0" points="260.6,103.3 259.4,103.3 253.1,94.2 253.1,103.3 251.8,103.3 251.8,91.5 252.9,91.5 259.3,100.7 
			259.3,91.5 260.6,91.5 		"/>
		<polygon class="st0" points="260.6,103.3 259.4,103.3 253.1,94.2 253.1,103.3 251.8,103.3 251.8,91.5 252.9,91.5 259.3,100.7 
			259.3,91.5 260.6,91.5 		"/>
		<path class="st0" d="M270.7,91.5h3.7c3.5,0,5,3.1,5,5.9c0,3-1.9,5.9-5,5.9h-3.7V91.5z M272,101.8h2.2c3.1,0,3.8-2.9,3.8-4.4
			c0-2.4-1.2-4.4-3.8-4.4H272V101.8z"/>
		<path class="st0" d="M270.7,91.5h3.7c3.5,0,5,3.1,5,5.9c0,3-1.9,5.9-5,5.9h-3.7V91.5z M272,101.8h2.2c3.1,0,3.8-2.9,3.8-4.4
			c0-2.4-1.2-4.4-3.8-4.4H272V101.8z"/>
	</g>
</g>
<g id="レイヤー_2">
</g>
</svg>
