<?xml version="1.0" encoding="utf-8"?>
<!-- Generator: Adobe Illustrator 20.1.0, SVG Export Plug-In . SVG Version: 6.00 Build 0)  -->
<svg version="1.1" id="レイヤー_1" xmlns="http://www.w3.org/2000/svg" xmlns:xlink="http://www.w3.org/1999/xlink" x="0px"
	 y="0px" viewBox="0 0 165.2 31.3" style="enable-background:new 0 0 165.2 31.3;" xml:space="preserve">
<style type="text/css">
	.st0{fill:#231815;}
</style>
<g>
	<g>
		<g>
			<polygon class="st0" points="0,1.6 0,0.2 7.8,0.2 7.8,1.6 4.5,1.6 4.5,12.7 3.2,12.7 3.2,1.6 			"/>
			<path class="st0" d="M11.5,6.3c0-2.5,1.4-6.3,5.1-6.3c4.2,0,5.1,3.9,5.1,6.2c0,3.2-1.2,6.6-5.2,6.6C12.8,12.7,11.5,8.8,11.5,6.3z
				 M16.6,1.5c-1.4,0-3.6,1.2-3.6,4.8c0,3.6,1.8,5.1,3.7,5.1s3.6-1.2,3.6-5.1C20.3,2.6,18.1,1.5,16.6,1.5z"/>
			<path class="st0" d="M41.3,6.3c0-2.5,1.4-6.3,5.1-6.3c4.2,0,5.1,3.9,5.1,6.2c0,3.2-1.2,6.6-5.2,6.6C42.5,12.7,41.3,8.8,41.3,6.3z
				 M46.3,1.5c-1.4,0-3.6,1.2-3.6,4.8c0,3.6,1.8,5.1,3.7,5.1c1.8,0,3.6-1.2,3.6-5.1C50,2.6,47.8,1.5,46.3,1.5z"/>
			<path class="st0" d="M81.3,6.3c0-2.5,1.4-6.3,5.1-6.3c4.2,0,5.1,3.9,5.1,6.2c0,3.2-1.2,6.6-5.2,6.6C82.6,12.7,81.3,8.8,81.3,6.3z
				 M86.3,1.5c-1.4,0-3.6,1.2-3.6,4.8c0,3.6,1.8,5.1,3.7,5.1c1.8,0,3.6-1.2,3.6-5.1C90,2.6,87.8,1.5,86.3,1.5z"/>
			<polygon class="st0" points="26.9,12.7 26.9,0.3 28.4,0.3 31.4,5.3 34.7,0.3 36,0.3 36,12.7 34.6,12.7 34.6,3.2 31.4,7.9 
				28.5,3.3 28.5,12.7 			"/>
			<path class="st0" d="M64.6,12.7H63c0,0-2.6-5.6-4-5.6c-0.2,0-0.5,0-0.5,0l0,5.6h-1.4V0.3c0,0,1.7,0,2.4,0c0.7,0,3.1,0.4,3.1,3.2
				c0,0.6-0.2,2.5-1.8,3.1c0,0,1.2,1.3,1.9,2.7C63.6,10.7,64.6,12.7,64.6,12.7z M60,5.5c0.7,0,1.3-0.9,1.3-2c0-1.4-1.1-1.8-1.6-1.8
				s-1,0-1,0v3.9C58.5,5.5,59.2,5.5,60,5.5z"/>
			<path class="st0" d="M77.1,12.7h-1.5c0,0-2.6-5.6-4-5.6c-0.2,0-0.5,0-0.5,0l0,5.6h-1.4V0.3c0,0,1.7,0,2.4,0
				c0.7,0,3.1,0.4,3.1,3.2c0,0.6-0.2,2.5-1.8,3.1c0,0,1.2,1.3,1.9,2.7C76.1,10.7,77.1,12.7,77.1,12.7z M72.5,5.5
				c0.7,0,1.3-0.9,1.3-2c0-1.4-1.1-1.8-1.6-1.8c-0.5,0-1,0-1,0v3.9C71.1,5.5,71.8,5.5,72.5,5.5z"/>
			<polygon class="st0" points="95.3,0.3 96.7,0.3 99.5,8.7 102.4,0.3 103.5,0.3 106.3,8.6 109.1,0.3 110.5,0.3 106.2,12.7 
				102.9,3.1 99.5,12.8 			"/>
			<polygon class="st0" points="115.5,0.3 115.5,13 121.2,13 121.2,11.6 116.9,11.6 116.9,0.3 			"/>
			<path class="st0" d="M126.1,13l4.4-12.7h0.9l4.5,12.6h-1.5l-1.5-4h-3.9l-1.4,4H126.1z M132.4,7.5l-1.5-4.3l-1.4,4.3L132.4,7.5z"
				/>
			<polygon class="st0" points="141.1,13 141.1,0.3 142.3,0.3 148.9,10.1 148.9,0.3 150.4,0.3 150.4,13 149,12.9 142.6,3.4 
				142.6,13 			"/>
			<path class="st0" d="M156.4,0.3c0,0,2.2,0,3.4,0c1.2,0,5.4,0.5,5.4,6.3c0,5.6-3.9,6.5-5.1,6.5c-1.2,0-3.7,0-3.7,0L156.4,0.3z
				 M157.9,11.5c0,0,1.3,0,2.1,0c0.8,0,3.7-0.5,3.7-4.9c0-4.3-3-4.8-3.9-4.8c-0.9,0-1.9,0-1.9,0V11.5z"/>
		</g>
		<path class="st0" d="M16.3,29c-0.8,1.6-1.7,2.2-2.8,2.2c-1.1,0-2.6-0.9-2.6-3.1c0-2.3,1.6-3.5,3.2-3.5c0.5,0,1.1,0.2,1.5,0.4
			c0.4,0.3,0.6,0.7,0.6,1c0,0.3-0.2,0.6-0.6,0.6c-0.4,0-0.6-0.3-0.7-0.6l-0.1-0.3c-0.1-0.4-0.2-0.7-0.9-0.7c-0.5,0-1.8,0.4-1.8,2.5
			c0,1.6,1,2.7,2.2,2.7c1,0,1.5-0.6,2-1.3L16.3,29z"/>
		<path class="st0" d="M30.3,30.9c-1.7,0-2-2.6-2-3.6c0-1.5,0.8-2.2,1.7-2.2c1.3,0,2,1.5,2,3.3C32,30.3,31.1,30.9,30.3,30.9z
			 M30.1,24.6c-1.9,0-3.1,1.5-3.1,3.3c0,1.9,1.3,3.4,3.1,3.4c2.1,0,3.1-2,3.1-3.4C33.3,25.8,32,24.6,30.1,24.6z"/>
		<path class="st0" d="M43.9,30.9c0.8-0.1,1.1-0.2,1.1-1v-6.7c0-0.6-0.1-0.9-0.6-0.9c-0.2,0-0.3,0-0.5,0v-0.2
			c0.7-0.2,1.5-0.4,2.2-0.6l0.1,0v8.4c0,0.8,0.2,0.9,1.1,1v0.2h-3.3V30.9z"/>
		<path class="st0" d="M57.7,30.9c0.8-0.1,1.1-0.2,1.1-1v-6.7c0-0.6-0.1-0.9-0.6-0.9c-0.2,0-0.3,0-0.5,0v-0.2
			c0.7-0.2,1.5-0.4,2.2-0.6l0.1,0v8.4c0,0.8,0.2,0.9,1.1,1v0.2h-3.3V30.9z"/>
		<path class="st0" d="M72.6,26.8c0.2-1.2,0.8-1.6,1.6-1.6c1.1,0,1.3,0.9,1.4,1.6H72.6z M76.9,28.8c-0.3,0.5-0.9,1.5-2.2,1.5
			c-0.9,0-2.1-0.6-2.2-3.1h4.4c-0.2-1.8-1.2-2.6-2.5-2.6c-1.1,0-2.9,0.9-2.9,3.5c0,2,1.1,3.2,2.6,3.2c2,0,2.9-1.9,3-2.4L76.9,28.8z"
			/>
		<path class="st0" d="M93.2,29c-0.8,1.6-1.7,2.2-2.8,2.2c-1.1,0-2.6-0.9-2.6-3.1c0-2.3,1.6-3.5,3.2-3.5c0.5,0,1.1,0.2,1.5,0.4
			c0.4,0.3,0.6,0.7,0.6,1c0,0.3-0.2,0.6-0.6,0.6c-0.4,0-0.6-0.3-0.7-0.6l-0.1-0.3c-0.1-0.4-0.2-0.7-0.9-0.7c-0.5,0-1.8,0.4-1.8,2.5
			c0,1.6,1,2.7,2.2,2.7c1,0,1.5-0.6,2-1.3L93.2,29z"/>
		<path class="st0" d="M107.1,25.2h-1.4v4c0,0.4,0,1.3,0.7,1.3c0.5,0,0.7-0.3,0.9-0.5l0.2,0.2c-0.3,0.6-1,1.1-1.7,1.1
			c-0.7,0-1.3-0.4-1.3-1.8v-4.2h-0.7c0,0-0.1-0.1-0.1-0.1c0-0.2,0.3-0.3,0.6-0.6c0.5-0.6,0.7-0.9,1.3-1.6c0.1,0,0.1,0.1,0.1,0.2v1.6
			h1.4V25.2z"/>
		<path class="st0" d="M117.5,30.9c0.9,0,1.1-0.1,1.1-1.2v-3.3c0-0.8-0.3-0.8-0.5-0.8c-0.2,0-0.4,0-0.6,0.1v-0.2
			c0.7-0.2,1.5-0.5,2.2-0.8l0.1,0v5c0,0.9,0.1,1.2,1,1.2v0.2h-3.3V30.9z M119.1,21.5c0.4,0,0.7,0.3,0.7,0.7c0,0.4-0.3,0.7-0.7,0.7
			c-0.5,0-0.7-0.5-0.7-0.7C118.4,21.9,118.6,21.5,119.1,21.5z"/>
		<path class="st0" d="M134.8,30.9c-1.7,0-2-2.6-2-3.6c0-1.5,0.8-2.2,1.7-2.2c1.3,0,2,1.5,2,3.3C136.5,30.3,135.5,30.9,134.8,30.9z
			 M134.6,24.6c-1.9,0-3.1,1.5-3.1,3.3c0,1.9,1.3,3.4,3.1,3.4c2.1,0,3.1-2,3.1-3.4C137.7,25.8,136.4,24.6,134.6,24.6z"/>
		<path class="st0" d="M149.2,26.3c0-0.9-0.3-0.9-0.5-0.9c-0.2,0-0.4,0-0.4,0.1v-0.2c0.6-0.2,1.3-0.4,1.9-0.6l0.1,0v1.1
			c0.7-0.6,1.2-1.1,2.1-1.1c0.7,0,1.6,0.4,1.6,2.1V30c0,0.7,0.2,0.9,0.9,0.9v0.2H152v-0.2c0.5,0,0.9-0.1,0.9-1.2v-2.9
			c0-0.9-0.3-1.4-1.1-1.4c-0.4,0-0.9,0.3-1.4,0.8v4c0,0.5,0.2,0.7,0.9,0.7v0.2h-3v-0.2c0.7,0,0.9-0.2,0.9-1.1V26.3z"/>
	</g>
</g>
</svg>
