<?xml version="1.0" encoding="utf-8"?>
<!-- Generator: Adobe Illustrator 20.1.0, SVG Export Plug-In . SVG Version: 6.00 Build 0)  -->
<svg version="1.1" id="レイヤー_1" xmlns="http://www.w3.org/2000/svg" xmlns:xlink="http://www.w3.org/1999/xlink" x="0px"
	 y="0px" viewBox="0 0 194.9 15.1" style="enable-background:new 0 0 194.9 15.1;" xml:space="preserve">
<style type="text/css">
	.st0{fill:#231815;}
</style>
<g>
	<path class="st0" d="M9.8,2.1H5.8v12.8H4.1V2.1H0V0.2h9.8V2.1z"/>
	<path class="st0" d="M19.9,0c3.9,0,6.3,3.5,6.3,7.6c0,4-2.4,7.6-6.4,7.6c-3.8,0-6.3-3.6-6.3-7.6C13.5,3.5,16,0,19.9,0z M19.9,13.2
		c2.6,0,4.6-2.4,4.6-5.6c0-3.2-2-5.6-4.6-5.6c-2.6,0-4.6,2.4-4.6,5.6C15.3,10.8,17.2,13.2,19.9,13.2z"/>
	<path class="st0" d="M42.9,14.9h-1.7V3.5h0l-3.6,5.7h-0.3l-3.6-5.7h0v11.5h-1.7V0.2h1.6l3.9,6l3.9-6h1.6V14.9z"/>
	<path class="st0" d="M54.9,0c3.9,0,6.3,3.5,6.3,7.6c0,4-2.4,7.6-6.4,7.6c-3.8,0-6.3-3.6-6.3-7.6C48.6,3.5,51.1,0,54.9,0z
		 M54.9,13.2c2.6,0,4.6-2.4,4.6-5.6c0-3.2-2-5.6-4.6-5.6c-2.6,0-4.6,2.4-4.6,5.6C50.3,10.8,52.2,13.2,54.9,13.2z"/>
	<path class="st0" d="M70.5,0.2c2.4,0,3.9,1.6,3.9,4.1c0,1.7-0.7,3-2,3.6c1.1,0.9,1.7,2.2,2.6,4.1c0.5,1,0.8,1.5,1.6,2.9h-2l-1.6-3
		c-1.6-3-2.3-3.4-3.1-3.4h-0.7v6.4h-1.7V0.2H70.5z M69.2,6.6h1.1c1.8,0,2.3-1.2,2.3-2.4c0-1.4-0.7-2.2-2.3-2.2h-1.1V6.6z"/>
	<path class="st0" d="M85.3,0.2c2.4,0,3.9,1.6,3.9,4.1c0,1.7-0.7,3-2,3.6c1.1,0.9,1.7,2.2,2.6,4.1c0.5,1,0.8,1.5,1.6,2.9h-2l-1.6-3
		c-1.6-3-2.3-3.4-3.1-3.4H84v6.4h-1.7V0.2H85.3z M84,6.6h1.1c1.8,0,2.3-1.2,2.3-2.4c0-1.4-0.7-2.2-2.3-2.2H84V6.6z"/>
	<path class="st0" d="M101.9,0c3.9,0,6.3,3.5,6.3,7.6c0,4-2.4,7.6-6.4,7.6c-3.8,0-6.3-3.6-6.3-7.6C95.6,3.5,98.1,0,101.9,0z
		 M101.9,13.2c2.6,0,4.6-2.4,4.6-5.6c0-3.2-2-5.6-4.6-5.6c-2.6,0-4.6,2.4-4.6,5.6C97.4,10.8,99.3,13.2,101.9,13.2z"/>
	<path class="st0" d="M125.7,15h-0.3l-3.9-12l-3.9,12h-0.3l-4.8-14.8h1.7l3.2,10.1l3.3-10.1h1.6l3.3,10.1l3.2-10.1h1.7L125.7,15z"/>
	<path class="st0" d="M138,13h5.3v1.9h-7V0.2h1.7V13z"/>
	<path class="st0" d="M160.2,14.9h-1.7l-1.6-4.3h-5l-1.5,4.3h-1.7l5.1-14.8h1.2L160.2,14.9z M152.6,8.7h3.7l-1.9-5.3L152.6,8.7z"/>
	<path class="st0" d="M177.2,14.9h-1.4l-7.9-11.3v11.3h-1.6V0.2h1.3l8,11.4V0.2h1.6V14.9z"/>
	<path class="st0" d="M184.1,0.2h4.6c4.4,0,6.3,3.9,6.3,7.4c0,3.8-2.4,7.4-6.2,7.4h-4.6V0.2z M185.8,13h2.7c3.8,0,4.7-3.6,4.7-5.5
		c0-3-1.5-5.5-4.8-5.5h-2.6V13z"/>
</g>
</svg>
