<?xml version="1.0" encoding="utf-8"?>
<!-- Generator: Adobe Illustrator 20.1.0, SVG Export Plug-In . SVG Version: 6.00 Build 0)  -->
<svg version="1.1" id="レイヤー_1" xmlns="http://www.w3.org/2000/svg" xmlns:xlink="http://www.w3.org/1999/xlink" x="0px"
	 y="0px" viewBox="0 0 108.8 22.3" style="enable-background:new 0 0 108.8 22.3;" xml:space="preserve">
<style type="text/css">
	.st0{fill:#231815;}
</style>
<g>
	<path class="st0" d="M11.2,4.6H11c-0.1-1-0.6-1.9-1.4-2.7c-0.8-0.8-1.8-1.2-3-1.2C5.7,0.7,5,0.9,4.4,1.3C3.7,1.7,3.2,2.2,2.9,2.8
		C2.6,3.5,2.4,4.3,2.4,5.1c0,0.7,0.1,1.3,0.3,1.8c0.2,0.5,0.5,1,0.9,1.4C4,8.7,4.5,9.1,5,9.4c0.6,0.3,1.3,0.8,2.2,1.3
		c1.6,0.9,2.8,1.7,3.7,2.6c0.9,0.9,1.3,2,1.3,3.5c0,0.9-0.2,1.8-0.7,2.6c-0.5,0.8-1.2,1.5-2.1,2.1c-0.9,0.5-2.1,0.8-3.5,0.8
		c-0.9,0-1.7-0.1-2.3-0.3c-0.7-0.2-1.4-0.5-2.1-0.8c-0.3-0.1-0.5-0.1-0.6-0.1c-0.2,0-0.3,0.1-0.4,0.2c-0.1,0.1-0.1,0.5-0.3,0.9H0
		v-5.4h0.2c0.3,1.6,1,2.8,2,3.6c1,0.8,2.2,1.2,3.7,1.2c1.1,0,2-0.2,2.6-0.6c0.7-0.4,1.1-0.9,1.4-1.5c0.2-0.6,0.4-1.2,0.4-1.7
		c0-1.2-0.4-2.2-1.1-2.9c-0.7-0.8-1.8-1.5-3.3-2.3c-1-0.6-1.8-1-2.3-1.3c-0.5-0.3-1-0.7-1.5-1.2C1.6,9.6,1.2,9,0.9,8.3
		C0.6,7.6,0.4,6.9,0.4,6c0-1,0.3-2,0.8-2.9c0.5-0.9,1.3-1.7,2.3-2.2c1-0.6,2.1-0.8,3.3-0.8c0.9,0,1.9,0.2,2.9,0.5
		c0.2,0.1,0.4,0.1,0.6,0.1c0.3,0,0.5-0.2,0.7-0.7h0.2V4.6z"/>
	<path class="st0" d="M36.4,11.2c0,2-0.5,3.8-1.6,5.5c-1.1,1.7-2.6,3-4.4,4c-1.9,1-3.9,1.5-6.2,1.5c-2.3,0-4.4-0.5-6.3-1.5
		c-1.9-1-3.4-2.4-4.5-4.1c-1.1-1.7-1.6-3.6-1.6-5.6c0-1.5,0.3-3,1-4.3c0.7-1.4,1.6-2.5,2.7-3.5c1.2-1,2.5-1.8,4-2.3
		c1.5-0.6,3.1-0.8,4.7-0.8c1.6,0,3.1,0.3,4.6,0.8c1.5,0.5,2.8,1.3,4,2.3c1.2,1,2.1,2.2,2.7,3.6C36.1,8.1,36.4,9.6,36.4,11.2
		 M34.2,11.3c0-2.7-0.6-4.8-1.7-6.4c-1.2-1.5-2.5-2.6-4-3.1c-1.5-0.5-3-0.8-4.3-0.8c-1,0-2.1,0.1-3.2,0.4c-1.1,0.3-2.2,0.8-3.3,1.5
		c-1.1,0.7-1.9,1.8-2.6,3.2c-0.7,1.4-1,3-1,5c0,1.8,0.3,3.3,0.8,4.6c0.6,1.3,1.3,2.4,2.3,3.2c1,0.8,2.1,1.4,3.3,1.8
		c1.2,0.4,2.4,0.5,3.7,0.5c1.2,0,2.3-0.2,3.5-0.5c1.2-0.3,2.3-0.9,3.2-1.7c1-0.8,1.8-1.8,2.4-3.1C33.9,14.8,34.2,13.2,34.2,11.3"/>
	<path class="st0" d="M34.9,21.8h0.3c0.5,0,1-0.2,1.4-0.6c0.4-0.4,0.6-1,0.6-1.7V3.2c0-0.9-0.2-1.5-0.7-1.9c-0.5-0.4-1-0.5-1.6-0.6
		V0.5h6.3v0.2c-0.6,0-1.1,0.2-1.6,0.5c-0.5,0.3-0.7,1-0.7,1.9v15.7c0,0.9,0.3,1.5,0.7,1.9c1.3,1.3,4.2-0.9,4.6-1.2
		c0.5-0.4,1.9-1.8,2.3-2.5H47L44.2,22h-9.3V21.8z"/>
	<path class="st0" d="M62.4,0.5v0.2c-0.6,0-1.2,0.2-1.6,0.5c-0.4,0.4-0.7,1-0.7,1.8v16.3c0,0.8,0.2,1.4,0.7,1.8
		c0.5,0.4,1,0.6,1.6,0.6V22h-6.2v-0.2c0.6,0,1.2-0.2,1.6-0.5c0.5-0.4,0.7-1,0.7-1.8V3.1c0-0.9-0.2-1.5-0.7-1.8
		c-0.5-0.3-1-0.5-1.6-0.5V0.5H62.4z"/>
	<path class="st0" d="M31.6,3.7v0.4c-1.3,0-1.8,0.6-1.8,1.8v7.9c0,2.5-1.6,5.1-5.9,5.1c-3.8,0-5.7-2.2-5.7-5V5.5
		c0-1.3-0.4-1.5-1.7-1.5V3.7h5.1v0.4h-0.2c-1.1,0-1.6,0.3-1.6,1.5v8c0,2.7,1.6,4.3,4.5,4.3c2.2,0,4.5-0.9,4.5-4.3V6.4
		c0-1.9-0.3-2.3-1.9-2.3V3.7H31.6z"/>
	<path class="st0" d="M57.1,17.1c-0.4,0.7-1.8,2.1-2.3,2.5c-0.4,0.3-3.4,2.5-4.6,1.2c-0.4-0.4-0.7-1-0.7-1.9h0V9.5h0.4
		c0.4,0,0.5,0,0.8,0.1c0.2,0,0.4,0.1,0.6,0.2c0.2,0.1,0.5,0.3,0.7,0.6c0.2,0.3,0.4,1.3,0.5,1.9h0.2V6.4h-0.2c-0.1,0.9-0.4,1.8-1.1,2
		c-0.6,0.3-0.8,0.4-1.6,0.4h-0.4V1.2H50c2.4,0,4.8,1.2,6.1,2.7h0.2l-2-3.4h-8.7v0.3h0.3c0.7,0,1.3,0.2,1.6,0.7
		c0.3,0.5,0.4,1.1,0.4,1.7v16.2c0,0.8-0.2,1.3-0.6,1.7c-0.4,0.4-0.9,0.6-1.4,0.6h-0.3V22h9.3l2.7-4.9H57.1z"/>
	<path class="st0" d="M78.6,21.5c-0.3-0.1-0.5-0.4-0.8-0.8c-0.1-0.1-4.9-12.1-7.5-18.8c0-0.2,0.1-0.4,0.2-0.5
		c0.4-0.4,1.2-0.6,1.9-0.6V0.5h-6.2v0h-2l0,0.2c2.3,0,3.7,1.1,4.8,2.6c0,0.1,0.1,0.2,0.1,0.3l-4.6,15c-0.3,1-0.7,1.7-1.1,2.2
		c-0.4,0.5-1,0.8-1.6,0.8V22h4.8v-0.2c-0.5,0-0.9-0.1-1.2-0.3c-0.3-0.2-0.4-0.6-0.4-1.2c0-0.4,0.1-1,0.3-1.7l0.6-2h8.3
		c0.9,2.2,1.6,3.9,1.6,3.9c0,0.6-0.2,1-0.5,1.1c-0.4,0.1-0.9,0.2-1.6,0.2V22h6.1v-0.2C79.2,21.7,78.9,21.7,78.6,21.5 M66,16
		l3.4-11.3h0.1c0,0,2.7,6.6,4.6,11.3H66z"/>
	<path class="st0" d="M107.8,6.7c-0.7-1.4-1.6-2.6-2.8-3.6c-1.2-1-2.5-1.8-4-2.3c-1.5-0.5-3-0.8-4.6-0.8c-1.6,0-3.2,0.3-4.7,0.8
		c-1.5,0.6-2.8,1.3-4,2.3c-1.2,1-2.1,2.2-2.7,3.5c-0.7,1.4-1,2.8-1,4.3c0,2,0.5,3.9,1.6,5.6c0.5,0.7,1,1.4,1.6,2
		c0.2-0.2,0.5-0.4,0.7-0.7c0.1-0.1,0.2-0.2,0.3-0.3c-0.4-0.6-0.8-1.2-1.1-2c-0.6-1.3-0.8-2.8-0.8-4.6c0-2,0.3-3.7,1-5
		C88,4.8,88.9,3.8,90,3c1.1-0.8,2.1-1.3,3.3-1.5c1.1-0.3,2.2-0.4,3.2-0.4c1.3,0,2.8,0.3,4.3,0.8c1.5,0.5,2.9,1.6,4,3.1
		c1.2,1.5,1.7,3.7,1.7,6.4c0,1.9-0.3,3.5-0.9,4.8c-0.6,1.3-1.4,2.3-2.4,3.1c-1,0.8-2.1,1.3-3.2,1.7c-1.2,0.3-2.3,0.5-3.5,0.5
		c-1.3,0-2.5-0.2-3.7-0.5c-1.2-0.4-2.2-0.9-3.2-1.7c-0.3,0.3-0.6,0.5-0.9,0.8c0.5,0.3,1,0.6,1.5,0.9c1.9,1,4,1.5,6.3,1.5
		c2.3,0,4.3-0.5,6.2-1.5c1.9-1,3.3-2.4,4.4-4c1.1-1.7,1.6-3.5,1.6-5.5C108.8,9.6,108.4,8.1,107.8,6.7"/>
	<path class="st0" d="M91.3,5.6c-0.4-0.7-0.9-1.4-1.5-2c-0.3,0.3-0.6,0.6-0.9,0.9c0.4,0.6,0.7,1.3,1,2c0.4,1.1,0.7,2.5,0.7,4.1
		c0,1.3-0.3,5.8-2.2,7.7c-3.7,3.7-5.2,2.7-5.2,2.7c-0.1-0.1-0.2-0.2-0.3-0.3c-0.3-0.4-0.4-1-0.4-1.8V1.3c0.2,0,0.4-0.1,0.7-0.1
		c0,0,1.3,0,1.8,0.2c0.9,0.3,1.8,0.8,2.6,1.6c0.2-0.2,0.5-0.4,0.7-0.6c-0.2-0.2-0.4-0.3-0.7-0.4c-0.7-0.4-1.5-0.7-2.4-1
		c-0.7-0.2-1.5-0.3-2.5-0.4v0h-0.2c-0.2,0-0.4,0-0.6,0v0h-1.1v0h-2.5v0.2h0.3c0.4,0,0.7,0.1,1,0.2c0.3,0.2,0.5,0.4,0.7,0.8
		c0.2,0.4,0.3,0.8,0.3,1.4v16.2c0,0.6-0.2,1.1-0.5,1.6c-0.3,0.5-0.8,0.8-1.5,0.8h-0.3V22h4.3c0,0,3.2,0.2,6.8-3.4
		c0.7-0.7,1.3-1.4,1.7-2.3c0.5-0.8,0.8-1.7,1.1-2.6c0.2-0.9,0.4-1.9,0.4-2.9c0-1-0.1-1.9-0.4-2.8C92.1,7.2,91.8,6.3,91.3,5.6"/>
</g>
</svg>
