<svg xmlns="http://www.w3.org/2000/svg" width="82.531" height="26" viewBox="0 0 82.531 26">
  <metadata><?xpacket begin="﻿" id="W5M0MpCehiHzreSzNTczkc9d"?>
<x:xmpmeta xmlns:x="adobe:ns:meta/" x:xmptk="Adobe XMP Core 5.6-c140 79.160451, 2017/05/06-01:08:21        ">
   <rdf:RDF xmlns:rdf="http://www.w3.org/1999/02/22-rdf-syntax-ns#">
      <rdf:Description rdf:about=""/>
   </rdf:RDF>
</x:xmpmeta>
                                                                                                    
                                                                                                    
                                                                                                    
                                                                                                    
                                                                                                    
                                                                                                    
                                                                                                    
                                                                                                    
                                                                                                    
                                                                                                    
                                                                                                    
                                                                                                    
                                                                                                    
                                                                                                    
                                                                                                    
                                                                                                    
                                                                                                    
                                                                                                    
                                                                                                    
                                                                                                    
                           
<?xpacket end="w"?></metadata>
<defs>
    <style>
      .cls-1 {
        fill: #fff;
        fill-rule: evenodd;
      }
    </style>
  </defs>
  <path id="logo" class="cls-1" d="M37.746,34.134a27.887,27.887,0,0,0-3.737,1.838q-1.764,1.044-1.8,1.043a0.189,0.189,0,0,1-.138-0.06,0.176,0.176,0,0,1-.062-0.123q0-.306,1.621-1.242a38.487,38.487,0,0,1,4.019-1.963V33.288a6.071,6.071,0,0,1,2.106-4.872,11.489,11.489,0,0,1,6.234-2.274c-0.082-.277-0.135-0.481-0.16-0.61s-0.048-.255-0.068-0.372l-0.476.046q-1.548.152-2.128,0.151a9.557,9.557,0,0,1-4.993-1.119,3.4,3.4,0,0,1-1.838-3.009,4.087,4.087,0,0,1,1.706-3.283,6.394,6.394,0,0,1,4.12-1.366,8.934,8.934,0,0,1,3.341.69,16.269,16.269,0,0,1,3.586,2.065,11.042,11.042,0,0,1,2.127-.968,6.37,6.37,0,0,1,1.944-.323,2.816,2.816,0,0,1,1.713.446,1.482,1.482,0,0,1,.6,1.26q0,1.586-2.011,2.921A17.014,17.014,0,0,1,47.8,24.824a3.516,3.516,0,0,0,.071.516,6.754,6.754,0,0,0,.175.663,9.6,9.6,0,0,1,3.723.692,1.906,1.906,0,0,1,1.354,1.673,1.375,1.375,0,0,1-.557,1.159,2.516,2.516,0,0,1-1.55.422,5.3,5.3,0,0,1-3.061-.921,4.882,4.882,0,0,1-1.9-2.486,9.628,9.628,0,0,0-5,1.708,4.357,4.357,0,0,0-1.706,3.6c0,0.123.007,0.279,0.021,0.468s0.039,0.407.07,0.654a23.722,23.722,0,0,1,3.157-.686,21.612,21.612,0,0,1,3.066-.223,14.454,14.454,0,0,1,7.2,1.593q2.8,1.594,2.8,3.954a4.373,4.373,0,0,1-1.735,3.657,7.592,7.592,0,0,1-4.749,1.34,13.35,13.35,0,0,1-5.053-.972,11.023,11.023,0,0,1-4-2.673,9,9,0,0,1-1.576-2.228,8.791,8.791,0,0,1-.809-2.6m8.048-9.722a6.8,6.8,0,0,1,.852-2.646,7.705,7.705,0,0,1,1.994-2.2,13.718,13.718,0,0,0-3.318-1.678A10.414,10.414,0,0,0,42,17.331a6.524,6.524,0,0,0-3.57.868,2.591,2.591,0,0,0-1.354,2.25q0,1.63,2.191,2.828a10.873,10.873,0,0,0,5.284,1.2c0.163,0,.46-0.01.889-0.031,0.153-.011.27-0.02,0.351-0.031M39.6,33.5a11.293,11.293,0,0,0,4.028,6.049,10.478,10.478,0,0,0,6.614,2.37,5.409,5.409,0,0,0,3.219-.9,2.649,2.649,0,0,0,1.261-2.216q0-2.346-3.012-4.14a14.081,14.081,0,0,0-7.325-1.795,17.847,17.847,0,0,0-2.34.161A23.942,23.942,0,0,0,39.6,33.5m8.235-9.275a15.028,15.028,0,0,0,5-1.64,2.911,2.911,0,0,0,1.616-2.482,1.535,1.535,0,0,0-.436-1.179,1.792,1.792,0,0,0-1.263-.407,4.426,4.426,0,0,0-3.5,1.578,6.252,6.252,0,0,0-1.416,4.13m0.321,2.252a6.449,6.449,0,0,0,1.6,2.172,2.963,2.963,0,0,0,1.918.72,0.961,0.961,0,0,0,.688-0.246,0.84,0.84,0,0,0,.259-0.642,1.656,1.656,0,0,0-1.208-1.408A8.46,8.46,0,0,0,48.152,26.48ZM65.33,33.966l6.946-12.393,2.031-.092L65.774,36.369a23.477,23.477,0,0,0-1.175,2.2,3.4,3.4,0,0,0-.367,1.232,0.389,0.389,0,0,0,.145.306,0.535,0.535,0,0,0,.359.122,2.8,2.8,0,0,0,1.237-.734,26.324,26.324,0,0,0,2.168-2.051c0.182-.185.4-0.419,0.641-0.706a1.634,1.634,0,0,1,.579-0.519,0.261,0.261,0,0,1,.138.029,0.105,0.105,0,0,1,.047.093,1.333,1.333,0,0,1-.352.6q-0.353.43-1.085,1.165a17.4,17.4,0,0,1-2.439,2.219,2.735,2.735,0,0,1-1.475.513,1.168,1.168,0,0,1-.957-0.4,1.813,1.813,0,0,1-.328-1.169,3.726,3.726,0,0,1,.031-0.453c0.02-.171.062-0.417,0.124-0.746a10.073,10.073,0,0,1-2.075,2.067,3.323,3.323,0,0,1-1.873.7,1.47,1.47,0,0,1-1.323-.852,4.812,4.812,0,0,1-.481-2.356,5.025,5.025,0,0,1,.053-0.738,6.939,6.939,0,0,1,.147-0.72,2.491,2.491,0,0,1-.349.452,0.459,0.459,0,0,1-.287.161,0.257,0.257,0,0,1-.144-0.03,0.113,0.113,0,0,1-.038-0.093,1.675,1.675,0,0,1,.4-0.6q0.4-.474,1.072-1.164a12.98,12.98,0,0,1,2.942-2.273,5.738,5.738,0,0,1,2.7-.8,1.744,1.744,0,0,1,1.2.4,1.342,1.342,0,0,1,.45,1.056,2.008,2.008,0,0,1-.029.321,3.512,3.512,0,0,1-.094.369m-6.695,5.327a1.126,1.126,0,0,0,.2.7,0.653,0.653,0,0,0,.549.26,2.488,2.488,0,0,0,1.291-.519,9.025,9.025,0,0,0,1.614-1.455,13.287,13.287,0,0,0,1.961-2.716,5.094,5.094,0,0,0,.7-2.29,0.929,0.929,0,0,0-.3-0.695,1.014,1.014,0,0,0-.726-0.284,2.868,2.868,0,0,0-1.665.667,8.668,8.668,0,0,0-1.788,1.876,11.907,11.907,0,0,0-1.344,2.417A5.649,5.649,0,0,0,58.635,39.293Zm13.409-5.5q-0.851.858-1.772,1.905a4.044,4.044,0,0,1-1.088,1.048,0.15,0.15,0,0,1-.091-0.022,0.084,0.084,0,0,1-.03-0.069A5.355,5.355,0,0,1,70.1,35.264q1.036-1.193,2.925-3.153l2.256-.152-3.114,4.884q-1,1.575-1.267,2.112a2.075,2.075,0,0,0-.266.843,0.6,0.6,0,0,0,.16.412,0.477,0.477,0,0,0,.376.184,2.61,2.61,0,0,0,1.427-.619,18.609,18.609,0,0,0,2.253-2.12c0.171-.195.394-0.444,0.669-0.75a2.2,2.2,0,0,1,.758-0.69,0.2,0.2,0,0,1,.129.045,0.147,0.147,0,0,1,.053.109,0.975,0.975,0,0,1-.259.46q-0.26.321-1.175,1.274a19.179,19.179,0,0,1-2.381,2.173,2.628,2.628,0,0,1-1.436.56,1.549,1.549,0,0,1-1.23-.538,2.121,2.121,0,0,1-.465-1.44q0-1.2,2.165-4.479c0.162-.256.284-0.452,0.364-0.583m3.849-6.765A1.4,1.4,0,0,1,76.3,26.08a1.184,1.184,0,0,1,.884-0.45,0.791,0.791,0,0,1,.615.253,0.919,0.919,0,0,1,.231.646,1.458,1.458,0,0,1-.384.965,1.12,1.12,0,0,1-.861.449,0.86,0.86,0,0,1-.64-0.258A0.9,0.9,0,0,1,75.893,27.029Zm3.045,6.754q-0.853.86-1.772,1.909a4.123,4.123,0,0,1-1.088,1.051,0.149,0.149,0,0,1-.092-0.024,0.083,0.083,0,0,1-.03-0.068,8.381,8.381,0,0,1,1.823-2.21,23.258,23.258,0,0,0,2.6-3.066l1.364-2.039H80.226l0.26-.443H82.02l1.916-3.044,2.037-.153-2.007,3.2h3.6l-0.244.443H83.688L79,36.834q-0.754,1.2-1.113,1.918a2.8,2.8,0,0,0-.361,1.041,0.609,0.609,0,0,0,.162.415,0.48,0.48,0,0,0,.376.184,2.475,2.475,0,0,0,1.365-.582,20.682,20.682,0,0,0,2.314-2.162c0.225-.225.485-0.512,0.781-0.859a1.847,1.847,0,0,1,.66-0.582,0.193,0.193,0,0,1,.131.046,0.142,0.142,0,0,1,.053.107,0.978,0.978,0,0,1-.26.462c-0.173.214-.568,0.64-1.178,1.275a19.185,19.185,0,0,1-2.386,2.176,2.637,2.637,0,0,1-1.437.561,1.551,1.551,0,0,1-1.233-.538,2.131,2.131,0,0,1-.466-1.443q0-1.2,2.164-4.486C78.735,34.111,78.857,33.918,78.939,33.784Zm6.893,0.011q-0.85.858-1.772,1.905a4.09,4.09,0,0,1-1.088,1.048,0.15,0.15,0,0,1-.091-0.022,0.081,0.081,0,0,1-.031-0.069,5.358,5.358,0,0,1,1.037-1.393q1.037-1.193,2.927-3.153l2.254-.152-3.113,4.884q-1,1.575-1.266,2.112a2.068,2.068,0,0,0-.267.843,0.609,0.609,0,0,0,.16.412,0.479,0.479,0,0,0,.377.184,2.6,2.6,0,0,0,1.426-.619,18.592,18.592,0,0,0,2.254-2.12c0.172-.195.394-0.444,0.668-0.75a2.2,2.2,0,0,1,.758-0.69,0.2,0.2,0,0,1,.13.045,0.151,0.151,0,0,1,.052.109,0.966,0.966,0,0,1-.261.46q-0.258.321-1.174,1.274a19.067,19.067,0,0,1-2.383,2.173,2.621,2.621,0,0,1-1.433.56,1.546,1.546,0,0,1-1.23-.538,2.114,2.114,0,0,1-.466-1.44q0-1.2,2.165-4.479c0.162-.256.283-0.452,0.365-0.583m3.847-6.765a1.4,1.4,0,0,1,.407-0.949,1.188,1.188,0,0,1,.886-0.45,0.8,0.8,0,0,1,.615.253,0.921,0.921,0,0,1,.23.646,1.458,1.458,0,0,1-.386.965,1.12,1.12,0,0,1-.861.449,0.856,0.856,0,0,1-.637-0.258A0.892,0.892,0,0,1,89.678,27.029ZM96.96,37.817a0.794,0.794,0,0,1,.138.032,1.46,1.46,0,0,0,.365.061,2.823,2.823,0,0,0,1.309-.368,4.792,4.792,0,0,0,1.293-1.01l0.4-.474a0.3,0.3,0,0,1,.114-0.06,0.419,0.419,0,0,1,.145-0.031,0.1,0.1,0,0,1,.093.046,0.251,0.251,0,0,1,.029.135,0.413,0.413,0,0,1-.008.109,0.112,0.112,0,0,1-.021.046l-0.352.413a4.611,4.611,0,0,1-1.476,1.211,3.764,3.764,0,0,1-1.721.423c-0.172,0-.314-0.006-0.419-0.016s-0.2-.021-0.285-0.033a10.505,10.505,0,0,1-2.191,1.873,3.831,3.831,0,0,1-1.949.659,1.735,1.735,0,0,1-1.55-.845,4.485,4.485,0,0,1-.543-2.425,3.855,3.855,0,0,1,.062-0.645c0.041-.235.1-0.5,0.185-0.8a3.949,3.949,0,0,1-.416.48,0.448,0.448,0,0,1-.266.147,0.214,0.214,0,0,1-.114-0.024,0.111,0.111,0,0,1-.038-0.1,1.023,1.023,0,0,1,.237-0.4q0.235-.3,1.045-1.21a12.883,12.883,0,0,1,2.855-2.4,5.247,5.247,0,0,1,2.642-.866,2.059,2.059,0,0,1,1.572.614,2.3,2.3,0,0,1,.58,1.654,4.226,4.226,0,0,1-.4,1.715,10.95,10.95,0,0,1-1.309,2.082m-5.24,1.39a1.273,1.273,0,0,0,.237.843,0.9,0.9,0,0,0,.723.275,2.715,2.715,0,0,0,1.333-.514,8.209,8.209,0,0,0,1.606-1.355,9.548,9.548,0,0,0,1.613-2.336,5.225,5.225,0,0,0,.594-2.244,1.9,1.9,0,0,0-.312-1.155,1.025,1.025,0,0,0-.875-0.423,2.447,2.447,0,0,0-1.492.635,9.418,9.418,0,0,0-1.691,1.908,11.361,11.361,0,0,0-1.278,2.342A5.7,5.7,0,0,0,91.721,39.207Zm9.072,1.492,4.059-6.1a3.264,3.264,0,0,1,.2-0.291,3.962,3.962,0,0,0,.795-1.591,0.4,0.4,0,0,0-.093-0.3,0.51,0.51,0,0,0-.335-0.083,2.44,2.44,0,0,0-1.33.649,23.969,23.969,0,0,0-2.336,2.271c-0.212.225-.466,0.515-0.761,0.872a1.766,1.766,0,0,1-.7.658,0.161,0.161,0,0,1-.106-0.038,0.108,0.108,0,0,1-.045-0.085,0.681,0.681,0,0,1,.143-0.335,8.605,8.605,0,0,1,.571-0.7l0.994-1.086a17.769,17.769,0,0,1,2.251-2.145,2.538,2.538,0,0,1,1.443-.568,1.112,1.112,0,0,1,.894.39,1.606,1.606,0,0,1,.33,1.065,4.391,4.391,0,0,1-.3,1.515,10.342,10.342,0,0,1-.953,1.867,39.142,39.142,0,0,1,3.664-3.765,3.679,3.679,0,0,1,2.042-1.073,1.029,1.029,0,0,1,.855.413,1.75,1.75,0,0,1,.323,1.1,6.454,6.454,0,0,1-1.545,3.291q-0.263.353-.382,0.534a16.358,16.358,0,0,0-1.166,1.722,2.051,2.051,0,0,0-.3.908,0.637,0.637,0,0,0,.121.421,0.471,0.471,0,0,0,.383.145,2.628,2.628,0,0,0,1.275-.688,21.284,21.284,0,0,0,2.115-1.988q0.369-.366.841-0.917a1.939,1.939,0,0,1,.6-0.552,0.209,0.209,0,0,1,.138.055,0.153,0.153,0,0,1,.061.1,6.043,6.043,0,0,1-1.363,1.641l-0.183.185a20,20,0,0,1-2.172,1.988,2.653,2.653,0,0,1-1.332.652,1.261,1.261,0,0,1-1.088-.614,2.833,2.833,0,0,1-.411-1.608,3.451,3.451,0,0,1,.374-1.5,14.668,14.668,0,0,1,1.629-2.363c0.112-.143.275-0.336,0.48-0.58a3.61,3.61,0,0,0,.909-1.485,0.388,0.388,0,0,0-.079-0.275,0.384,0.384,0,0,0-.273-0.076q-0.734,0-2.9,2.189a72.807,72.807,0,0,0-5.148,5.965Z" transform="translate(-32 -16.594)"/>
</svg>
