<svg xmlns="http://www.w3.org/2000/svg" width="159.969" height="156.719" viewBox="0 0 159.969 156.719">
  <metadata><?xpacket begin="﻿" id="W5M0MpCehiHzreSzNTczkc9d"?>
<x:xmpmeta xmlns:x="adobe:ns:meta/" x:xmptk="Adobe XMP Core 5.6-c140 79.160451, 2017/05/06-01:08:21        ">
   <rdf:RDF xmlns:rdf="http://www.w3.org/1999/02/22-rdf-syntax-ns#">
      <rdf:Description rdf:about=""/>
   </rdf:RDF>
</x:xmpmeta>





















<?xpacket end="w"?></metadata>
<defs>
    <style>
      .cls-1 {
        fill-rule: evenodd;
      }
    </style>
  </defs>
  <path d="M559.991,238.056l0-36.32,6.165,0a7.54,7.54,0,0,1,7.5,7.534l0,4.466a7.6,7.6,0,0,1-3.162,6.133,7.673,7.673,0,0,1,3.161,6.134v4.52a7.54,7.54,0,0,1-7.5,7.532h-6.166Zm10.885-12.051a4.7,4.7,0,0,0-4.717-4.736h-3.377l0,13.99h3.378a4.7,4.7,0,0,0,4.719-4.734v-4.52Zm-4.717-7.533a4.7,4.7,0,0,0,4.718-4.734V209.27a4.7,4.7,0,0,0-4.716-4.735h-3.377l0,13.935h3.377Zm12.488-1.129a5.79,5.79,0,1,1,11.579,0l0,15.174a5.79,5.79,0,1,1-11.58,0Zm2.785,15.174a3,3,0,1,0,6,0l0-15.172a3,3,0,1,0-6,0Zm14.149,5.544,0-26.258h1.93L598,213.848a4.91,4.91,0,0,1,4.073-2.313c2.788,0,5.093,2.583,5.093,5.812l0,20.716-2.788,0,0-20.714a3,3,0,1,0-6,0l0,20.716h-2.788Zm29.481,0h-3.323l-4.393-26.258h2.788l3.214,20.608h0.108l3.217-20.608h2.788Zm8.31-20.713a5.79,5.79,0,1,1,11.58,0l0,15.172a5.789,5.789,0,1,1-11.578,0Zm2.785,15.173a3,3,0,1,0,6,0V217.351a3,3,0,1,0-6,0v15.173Zm19.617,8.558s-1.019,5.7-5.79,5.7v-2.8c2.467,0,3-2.905,3-2.905l0.537-3.015-4.661-26.257h2.788l3.214,20.61,0.108,0,3.217-20.606h2.788Zm20.1-6.778a0.964,0.964,0,0,0,.965.971v2.8A3.866,3.866,0,0,1,674,236.833a5.641,5.641,0,0,1-3.913,1.508,5.777,5.777,0,0,1-5.789-5.814v-2.958a4.951,4.951,0,0,1,2.358-4.036l4.129-2.366s2.305-1.345,2.305-3.5v-2.637a2.681,2.681,0,1,0-5.361,0v3.122l-2.786.323v-3.444a5.468,5.468,0,1,1,10.935,0Zm-8.792-1.777a3,3,0,1,0,6,0l0-7.642a4.7,4.7,0,0,1-.912.7l-4.129,2.365a1.978,1.978,0,0,0-.965,1.616v2.958Zm15.008,5.975a5.688,5.688,0,0,1,2.358-4.68,4.237,4.237,0,0,1-.8-2.583,4.192,4.192,0,0,1,.806-2.529,5.866,5.866,0,0,1-2.359-4.735l0-6.62c0-3.228,2.306-5.81,5.093-5.81a4.908,4.908,0,0,1,4.073,2.315l0.484-2.046h1.93l0,12.161a5.776,5.776,0,0,1-5.791,5.81,1.454,1.454,0,0,0,0,2.907,5.778,5.778,0,0,1,5.79,5.81l0,2.477a5.789,5.789,0,1,1-11.578,0V238.5Zm2.786,2.475a3,3,0,1,0,6.006,0V238.5a3,3,0,1,0-6,0Zm6.009-23.62a3,3,0,1,0-6,0l0,6.618a3,3,0,1,0,6,0Zm19.239,11.732v3.445a5.789,5.789,0,1,1-11.577,0l0-15.174a5.788,5.788,0,1,1,11.576,0v8.07h-8.79v7.1a3,3,0,1,0,6,0v-3.121Zm-8.789-6.458,6,0,0-5.275a3,3,0,1,0-6,0Zm18.274,15.444h-2.788l0-3.819h2.786v3.818Zm-2.783-36.318,0,29.164h2.786l0-29.164h-2.788ZM565.252,262.67H563.27l0,13.327h-1.129l0-13.329h-2v-1.112h5.115v1.114Zm1.79,1.455a2.771,2.771,0,1,1,5.542,0l0,9.307a2.771,2.771,0,1,1-5.541,0v-9.305Zm1.107,9.305a1.663,1.663,0,1,0,3.325,0v-9.305a1.663,1.663,0,1,0-3.325,0v9.305ZM579.72,276h-1.258l-2.278-12.108h-0.042l0,12.108h-1.108V261.558H576.7l2.364,12.729H579.1l2.388-12.728h1.685l0,14.44h-1.11l0-12.216h-0.043Zm5.9-11.872a2.771,2.771,0,1,1,5.541,0v9.3a2.771,2.771,0,1,1-5.541,0v-9.306Zm1.108,9.306a1.662,1.662,0,1,0,3.323,0l0-9.3a1.663,1.663,0,1,0-3.325,0v9.306ZM599.05,276h-1.109V271.21a1.866,1.866,0,0,0-1.875-1.882h-1.342l0,6.673h-1.108l0-14.439h2.449a3,3,0,0,1,2.984,2.994v1.776a3.022,3.022,0,0,1-1.257,2.439,3.055,3.055,0,0,1,1.257,2.439V276Zm-2.984-7.788a1.866,1.866,0,0,0,1.875-1.881l0-1.775a1.872,1.872,0,0,0-1.877-1.886h-1.342v5.542h1.342ZM606.806,276H605.7v-4.791a1.867,1.867,0,0,0-1.875-1.883H602.48V276h-1.108V261.561h2.451a3,3,0,0,1,2.983,3v1.775a3.018,3.018,0,0,1-1.256,2.439,3.05,3.05,0,0,1,1.256,2.439V276Zm-2.983-7.787a1.868,1.868,0,0,0,1.875-1.882v-1.775a1.867,1.867,0,0,0-1.875-1.884H602.48v5.541h1.343Zm5.627-4.085a2.77,2.77,0,1,1,5.54,0v9.305a2.771,2.771,0,1,1-5.542,0Zm1.107,9.305a1.662,1.662,0,1,0,3.323,0l0-9.305a1.663,1.663,0,1,0-3.325,0v9.305ZM624.28,276h-1.322l-1-5.668h-0.042l-1,5.668h-1.322l-2.576-14.44h1.106l2.11,11.937h0.042l1.11-6.29-1-5.648h1.109L623.6,273.5h0.042l2.113-11.938h1.107Zm9.292-1.11v1.112h-4.584l0-14.44H630.1v13.328h3.475Zm7.777,1.113h-1.108l-0.575-3.7h-2.92l-0.555,3.7h-1.108l2.2-14.44h1.875Zm-4.432-4.812H639.5l-1.256-8.387H638.2Zm6.628-9.626h1.342l3.387,10.953h0.043l0-10.953h1.107l0,14.44h-1.108L644.7,264.456h-0.042l0,11.551h-1.108Zm13.978,11.446a3,3,0,0,1-2.983,2.994h-2.559l0-14.44h2.558a3,3,0,0,1,2.984,3Zm-1.107-8.45a1.867,1.867,0,0,0-1.875-1.882h-1.45v12.212l1.449,0a1.87,1.87,0,0,0,1.876-1.882v-8.45Zm12.636-1.882v5.542h2.578v1.133h-2.578l0,5.542h3.665v1.112l-4.773,0V261.568l4.605,0,0,1.112h-3.494Zm6.329,4.215a3.1,3.1,0,0,1-.64-1.8v-0.962a2.771,2.771,0,1,1,5.542,0v1.8l-1.108.129V264.14a1.663,1.663,0,1,0-3.326,0V265.1a1.8,1.8,0,0,0,.385,1.071l3.386,4.043a3.163,3.163,0,0,1,.663,1.839l0,1.392a2.771,2.771,0,1,1-5.542,0l0-2.119,1.108-.127v2.246a1.662,1.662,0,1,0,3.324,0l0-1.392a1.941,1.941,0,0,0-.406-1.111Zm12-4.213H685.4v13.327h-1.13l0-13.327h-2v-1.112h5.115v1.112Zm2.769,11.81v1.519h-1.109v-1.519h1.109Zm5.646,1.519,0-14.331,1.108-.108,0,14.439h-1.108Zm3.9-11.873a2.771,2.771,0,1,1,5.542,0l0,9.306a2.771,2.771,0,1,1-5.541,0v-1.2l1.11-.129v1.328a1.662,1.662,0,1,0,3.323,0v-3.7a2.8,2.8,0,0,1-1.662.535,2.77,2.77,0,0,1-2.77-2.781v-3.36Zm1.109,3.36a1.663,1.663,0,1,0,3.325,0v-3.358a1.663,1.663,0,1,0-3.325,0v3.36Zm12.084-5.368-3.519,13.882h-1.107l3.367-13.326h-4.07l0-1.113h5.327v0.557Zm1.553,2.01a2.771,2.771,0,1,1,5.542,0v2.2a2.607,2.607,0,0,1-1.321,2.225,2.664,2.664,0,0,1,1.321,2.225v2.653a2.772,2.772,0,1,1-5.543,0V270.8a2.669,2.669,0,0,1,1.322-2.227,2.6,2.6,0,0,1-1.322-2.223v-2.2Zm1.109,9.308a1.662,1.662,0,1,0,3.323,0l0-2.653a1.663,1.663,0,1,0-3.325,0v2.653Zm0-7.1a1.663,1.663,0,1,0,3.325,0v-2.2a1.663,1.663,0,1,0-3.325,0v2.2ZM630.266,120.459l-0.007,44.368h4.071v4.94h-4.071v14.819h-4.92V169.767h-19.12v-4.94l19.125-44.367h4.922Zm-4.927,44.368,0-32.967-14.2,32.966h14.2Zm23.186-33.249a12.021,12.021,0,1,1,24.042,0l0,41.9a12.021,12.021,0,1,1-24.042,0Zm4.917,41.9a7.1,7.1,0,1,0,14.2,0l0-41.9a7.1,7.1,0,1,0-14.2,0Z" transform="translate(-560 -119.5)"/>
</svg>
