<?xml version="1.0" encoding="utf-8"?>
<svg id="レイヤー_1" xmlns="http://www.w3.org/2000/svg" viewBox="0 0 537.9 95.7" style="enable-background:new 0 0 537.9 95.7">
  <style>.color1{fill:#231815}.color2{fill:#e50012}</style>
  <path class="color1" d="M110.2 66.9c3.9 0 7.2 1.2 9.8 3.7 2.6 2.5 3.9 5.6 3.9 9.4 0 3.8-1.3 6.9-4 9.3-2.6 2.5-6 3.7-10 3.7-3.8 0-7-1.2-9.6-3.7-2.6-2.5-3.8-5.6-3.8-9.3 0-3.8 1.3-7 3.9-9.5 2.6-2.4 5.8-3.6 9.8-3.6zm.1 3.5c-2.9 0-5.3.9-7.2 2.7-1.9 1.8-2.8 4.2-2.8 7s.9 5 2.8 6.9c1.9 1.8 4.2 2.7 7.1 2.7 2.8 0 5.2-.9 7.1-2.8 1.9-1.9 2.9-4.2 2.9-7 0-2.7-1-5-2.9-6.8-1.9-1.8-4.2-2.7-7-2.7zM0 6.6h11.3v35.3h5.4V6.6H28v-6H0zM489.1.4H484v31L463.3.6l-.1-.2h-4.9v41.2h5.1V10.5L484 41.3v.3h5.3l-.2-.5zM103.4 16.6L93.1.3h-5.2v41.2h5.4V10.9L103.4 26l10.1-15.1v30.6h5.4V.3h-5.2zM55.3 0c-9.8 0-17.8 9.5-17.8 21.1s8 21.1 17.8 21.1 17.8-9.5 17.8-21.1S65.1 0 55.3 0zm0 36.2c-6.9 0-12.5-6.8-12.5-15.2 0-8.4 5.6-15.1 12.5-15.1S67.8 12.7 67.8 21c0 8.4-5.6 15.2-12.5 15.2zM151.7 0c-9.8 0-17.8 9.5-17.8 21.1s8 21.1 17.8 21.1 17.8-9.5 17.8-21.1S161.5 0 151.7 0zm0 36.2c-6.9 0-12.5-6.8-12.5-15.2 0-8.4 5.6-15.1 12.5-15.1s12.5 6.8 12.5 15.1c0 8.4-5.6 15.2-12.5 15.2zM281.2 0c-9.8 0-17.8 9.5-17.8 21.1s8 21.1 17.8 21.1S299 32.7 299 21.1 291 0 281.2 0zm0 36.2c-6.9 0-12.5-6.8-12.5-15.2 0-8.4 5.6-15.1 12.5-15.1s12.5 6.8 12.5 15.1c0 8.4-5.6 15.2-12.5 15.2zM205.4 28.6c-1.7-3.1-3.2-5.4-4.7-6.8 2.1-1.4 5.1-4.5 5.1-10 0-8.6-6.2-11.7-10.3-11.7h-9.3v41.3h5.4V23.7h2.4c3 .5 4.7 3.7 6.1 6.2 1.6 2.8 5.5 11.1 5.6 11.2l.1.2h6.3l-.3-.6c-.1-.1-4.4-8.4-6.4-12.1zM191.6 5.7h3.4c.9 0 5.2.3 5.2 6s-4.3 6-5.2 6h-3.4v-12zM246.1 28.6c-1.7-3.2-3.2-5.4-4.8-6.8 2.1-1.4 5.1-4.5 5.1-10 0-8.6-6.2-11.7-10.3-11.7h-9.3v41.3h5.4V23.7h2.4c3 .5 4.7 3.6 6.1 6.2 1.5 2.8 5.5 11.1 5.6 11.2l.1.2h6.3l-.3-.6c-.1-.1-4.4-8.4-6.3-12.1zM232.3 5.7h3.4c.9 0 5.2.3 5.2 6 0 1-.2 6-5.2 6h-3.4v-12zM346.3 26.9L337.9.8l-.1-.3h-5.3l-8.6 26.4L315.4.5h-5.6L323.9 43l11.2-33.7L346.3 43l13.9-42 .2-.5h-5.6zM381 .3h-5.2v41.3h20v-6H381zM423.9.6l-14.2 41.7h5.2l4.1-12.2h13.5l4.1 12.2h5.2L427.6.6h-3.7zm6.7 23.9H421l4.8-14.2 4.8 14.2zM532.2 5.4c-2.9-3-6.9-4.7-10.7-4.7h-14.2v41.1h14.2c3.8 0 7.8-1.8 10.7-4.7 2.6-2.6 5.7-7.5 5.7-15.8 0-8.4-3.1-13.2-5.7-15.9zm-19.7 1h8.2c8.5 0 11.7 9.1 11.7 14.8 0 6-2.2 9.5-4.1 11.4-2.1 2.1-4.9 3.4-7.6 3.4h-8.2V6.4zM155.2 67.3h3.5v25.5h-3.1l-17-19.6v19.6H135V67.3h3l17.2 19.8V67.3zM170.9 67.3h3.6v22.2H186v3.3h-15.1V67.3zM199.1 67.3h3.6v25.5h-3.6V67.3zM236.2 67.3h3.5v25.5h-3.1l-17.1-19.6v19.6H216V67.3h3l17.2 19.8V67.3zM252.7 67.3h14.5v3.2h-10.8v7.8h10.4v3.3h-10.4v7.9h11.2v3.3h-14.8V67.3zM301.1 82.1l-2.8-1.7c-1.7-1.1-3-2.1-3.7-3.1-.7-1-1.1-2.2-1.1-3.6 0-2 .7-3.6 2.1-4.9 1.4-1.3 3.2-1.9 5.4-1.9 2.1 0 4.1.6 5.9 1.8v4.1c-1.8-1.8-3.8-2.7-5.9-2.7-1.2 0-2.2.3-2.9.8-.8.6-1.1 1.3-1.1 2.1s.3 1.5.8 2.1c.6.7 1.5 1.4 2.7 2.1l2.8 1.7c3.1 1.9 4.7 4.2 4.7 7.1 0 2-.7 3.7-2.1 5-1.4 1.3-3.1 1.9-5.3 1.9-2.5 0-4.8-.8-6.9-2.3V86c2 2.5 4.3 3.7 6.8 3.7 1.1 0 2.1-.3 2.9-1 .8-.6 1.1-1.4 1.1-2.4-.1-1.4-1.2-2.8-3.4-4.2zM319.2 67.2h21.3v3.2h-8.9v22.3h-3.7V70.5h-8.7v-3.3zM396.4 92.8V67.3h6.4c2.6 0 4.6.6 6.1 1.9 1.5 1.3 2.3 3 2.3 5.2 0 1.5-.4 2.8-1.1 3.9-.7 1.1-1.8 1.9-3.2 2.4.8.5 1.6 1.3 2.4 2.2.8.9 1.9 2.5 3.3 4.8.9 1.4 1.6 2.5 2.1 3.3l1.3 1.8h-4.3l-1.1-1.7c0-.1-.1-.2-.2-.3l-.7-1-1.1-1.9-1.2-2c-.8-1-1.4-1.9-2.1-2.5-.6-.6-1.2-1.1-1.7-1.3-.5-.3-1.4-.4-2.5-.4h-1v11.1h-3.7zm4.7-22.4H400v8h1.4c1.9 0 3.1-.2 3.8-.5.7-.3 1.2-.8 1.6-1.4.4-.6.6-1.4.6-2.2 0-.8-.2-1.5-.6-2.2-.4-.6-1-1.1-1.8-1.4-.8-.2-2.1-.3-3.9-.3zM427.8 67.3h14.5v3.2h-10.8v7.8h10.4v3.3h-10.4v7.9h11.2v3.3h-14.8V67.3z"/><g><path class="color1" d="M366.3 64c4.8 0 8.8 1.4 12 4.4 3.2 3 4.8 6.8 4.9 11.3 0 4.6-1.5 8.3-4.7 11.4-3.2 3-7.2 4.5-12.1 4.6-4.7 0-8.6-1.4-11.7-4.4-3.1-3-4.7-6.7-4.7-11.2 0-4.6 1.5-8.5 4.6-11.5 3-3 7-4.5 11.7-4.6z"/><path d="M366.4 68.3c3.5 0 6.4 1 8.7 3.2 2.3 2.2 3.5 4.9 3.5 8.2 0 3.3-1.1 6.1-3.4 8.2-2.3 2.2-5.2 3.3-8.8 3.3-3.4 0-6.2-1-8.5-3.2-2.3-2.1-3.4-4.9-3.4-8.1 0-3.3 1.1-6.1 3.3-8.3 2.3-2.1 5.1-3.2 8.6-3.3z" style="fill:#fff"/><g><circle class="color2" cx="362.8" cy="76.3" r="2.1"/><circle class="color2" cx="369.9" cy="76.3" r="2.1"/><circle class="color2" cx="362.8" cy="83.2" r="2.1"/><circle class="color2" cx="369.9" cy="83.2" r="2.1"/></g></g>
</svg>
